<svg width="24" height="24" viewBox="0 0 24 24" fill="none" xmlns="http://www.w3.org/2000/svg">
<path d="M21.1319 21.6871H3.50439C3.39496 21.6871 3.29002 21.6436 3.21264 21.5662C3.13527 21.4889 3.0918 21.3839 3.0918 21.2745V3.64697C3.0918 3.53754 3.13527 3.4326 3.21264 3.35522C3.29002 3.27784 3.39496 3.23437 3.50439 3.23438H13.6294L21.5445 11.1494V21.2745C21.5445 21.3286 21.5338 21.3823 21.5131 21.4324C21.4923 21.4824 21.462 21.5279 21.4236 21.5662C21.3853 21.6045 21.3398 21.6349 21.2898 21.6557C21.2397 21.6764 21.1861 21.6871 21.1319 21.6871Z" fill="#FFD469"/>
<path d="M11.3841 7.89392H5.9065C5.59651 7.89392 5.34521 7.64263 5.34521 7.33264C5.34521 7.02266 5.59651 6.77136 5.9065 6.77136H11.3841C11.6941 6.77136 11.9454 7.02266 11.9454 7.33264C11.9454 7.64263 11.6941 7.89392 11.3841 7.89392ZM11.9454 11.0065C11.9454 10.6965 11.6941 10.4452 11.3841 10.4452H5.9065C5.59651 10.4452 5.34521 10.6965 5.34521 11.0065C5.34521 11.3165 5.59651 11.5678 5.9065 11.5678H11.3841C11.6941 11.5677 11.9454 11.3165 11.9454 11.0065ZM11.9454 14.6803C11.9454 14.3703 11.6941 14.119 11.3841 14.119H5.9065C5.59651 14.119 5.34521 14.3703 5.34521 14.6803C5.34521 14.9902 5.59651 15.2415 5.9065 15.2415H11.3841C11.6941 15.2415 11.9454 14.9902 11.9454 14.6803ZM16.6875 18.354C16.6875 18.0441 16.4362 17.7928 16.1262 17.7928H5.9065C5.59651 17.7928 5.34521 18.0441 5.34521 18.354C5.34521 18.664 5.59651 18.9153 5.9065 18.9153H16.1262C16.4362 18.9153 16.6875 18.664 16.6875 18.354ZM18.5782 14.6803C18.5782 14.3703 18.3269 14.119 18.0169 14.119H14.2356C13.9256 14.119 13.6743 14.3703 13.6743 14.6803C13.6743 14.9902 13.9256 15.2415 14.2356 15.2415H18.0169C18.3269 15.2415 18.5782 14.9902 18.5782 14.6803Z" fill="#597B91"/>
<path d="M13.6294 3.23438L21.5444 11.1494H15.3118C14.3826 11.1494 13.6294 10.3962 13.6294 9.46702V3.23438Z" fill="#FFB636"/>
</svg>
