<svg width="71" height="71" viewBox="0 0 71 71" fill="none" xmlns="http://www.w3.org/2000/svg">
    <path fill-rule="evenodd" clip-rule="evenodd"
          d="M34.0109 1.16055C35.1056 0.613151 36.3944 0.613151 37.4891 1.16055L68.6002 16.7159C69.9178 17.3747 70.75 18.7213 70.75 20.1942C70.75 21.6672 69.9178 23.0138 68.6002 23.6725L60.5117 27.7169L68.7678 32.3609C70.022 33.0663 70.7838 34.4064 70.7488 35.8449C70.7138 37.2834 69.8874 38.585 68.6002 39.2286L60.5121 43.2726L68.7678 47.9163C70.022 48.6217 70.7838 49.9618 70.7488 51.4003C70.7138 52.8388 69.8874 54.1404 68.6002 54.784L37.4891 70.3393C36.3944 70.8869 35.1056 70.8869 34.0109 70.3393L2.89974 54.784C1.61271 54.1404 0.786205 52.8388 0.751166 51.4003C0.716089 49.9618 1.47819 48.6217 2.73232 47.9163L10.9878 43.2726L2.89974 39.2286C1.61271 38.585 0.786205 37.2834 0.751166 35.8449C0.716089 34.4064 1.47819 33.0663 2.73232 32.3609L10.9885 27.7169L2.89974 23.6725C1.58222 23.0138 0.75 21.6672 0.75 20.1942C0.75 18.7213 1.58222 17.3747 2.89974 16.7159L34.0109 1.16055ZM19.3867 47.4721L12.9305 51.1035L35.75 62.513L58.5696 51.1035L52.1133 47.4721L37.4891 54.784C36.3944 55.3315 35.1056 55.3315 34.0109 54.784L19.3867 47.4721ZM37.4891 39.2278L52.1125 31.9164L58.5696 35.5482L35.75 46.9577L12.9305 35.5482L19.3873 31.9164L34.0109 39.2278C35.1056 39.7753 36.3944 39.7753 37.4891 39.2278Z"
          fill="#FFFFFF"/>
</svg>
