<svg width="265" height="265" viewBox="0 0 265 265" fill="none" xmlns="http://www.w3.org/2000/svg">
    <rect width="40" height="40" rx="5" fill="#23272f"/>
    <rect y="45" width="40" height="40" rx="5" fill="#23272f"/>
    <rect y="90" width="40" height="40" rx="5" fill="#23272f"/>
    <rect y="135" width="40" height="40" rx="5" fill="#23272f"/>
    <rect y="180" width="40" height="40" rx="5" fill="#23272f"/>
    <rect y="225" width="40" height="40" rx="5" fill="#23272f"/>
    <rect x="45" width="40" height="40" rx="5" fill="#23272f"/>
    <rect x="45" y="45" width="40" height="40" rx="5" fill="#23272f"/>
    <rect x="45" y="90" width="40" height="40" rx="5" fill="#23272f"/>
    <rect x="45" y="135" width="40" height="40" rx="5" fill="#23272f"/>
    <rect x="45" y="180" width="40" height="40" rx="5" fill="#23272f"/>
    <rect x="45" y="225" width="40" height="40" rx="5" fill="#23272f"/>
    <rect x="90" width="40" height="40" rx="5" fill="#23272f"/>
    <rect x="90" y="45" width="40" height="40" rx="5" fill="#23272f"/>
    <rect x="90" y="90" width="40" height="40" rx="5" fill="#23272f"/>
    <rect x="90" y="135" width="40" height="40" rx="5" fill="#23272f"/>
    <rect x="90" y="180" width="40" height="40" rx="5" fill="#23272f"/>
    <rect x="90" y="225" width="40" height="40" rx="5" fill="#23272f"/>
    <rect x="135" width="40" height="40" rx="5" fill="#23272f"/>
    <rect x="180" width="40" height="40" rx="5" fill="#23272f"/>
    <rect x="225" width="40" height="40" rx="5" fill="#23272f"/>
    <rect x="135" y="45" width="40" height="40" rx="5" fill="#23272f"/>
    <rect x="180" y="45" width="40" height="40" rx="5" fill="#23272f"/>
    <rect x="225" y="45" width="40" height="40" rx="5" fill="#23272f"/>
    <rect x="135" y="90" width="40" height="40" rx="5" fill="#23272f"/>
    <rect x="180" y="90" width="40" height="40" rx="5" fill="#23272f"/>
    <rect x="225" y="90" width="40" height="40" rx="5" fill="#23272f"/>
    <rect x="135" y="135" width="40" height="40" rx="5" fill="#23272f"/>
    <rect x="180" y="135" width="40" height="40" rx="5" fill="#23272f"/>
    <rect x="225" y="135" width="40" height="40" rx="5" fill="#23272f"/>
    <rect x="135" y="180" width="40" height="40" rx="5" fill="#23272f"/>
    <rect x="180" y="180" width="40" height="40" rx="5" fill="#23272f"/>
    <rect x="225" y="180" width="40" height="40" rx="5" fill="#23272f"/>
    <rect x="135" y="225" width="40" height="40" rx="5" fill="#23272f"/>
    <rect x="180" y="225" width="40" height="40" rx="5" fill="#23272f"/>
    <rect x="225" y="225" width="40" height="40" rx="5" fill="#23272f"/>
</svg>
