<svg width="81" height="79" viewBox="0 0 81 79" fill="none" xmlns="http://www.w3.org/2000/svg">
    <path d="M40.75 0.740479C18.65 0.740479 0.75 18.6505 0.75 40.7405C0.75 58.4171 12.21 73.4071 28.1 78.6905C30.1 79.0671 30.8333 77.8305 30.8333 76.7671C30.8333 75.8171 30.8 73.3005 30.7833 69.9671C19.6567 72.3805 17.31 64.6005 17.31 64.6005C15.49 59.9838 12.86 58.7505 12.86 58.7505C9.23667 56.2705 13.14 56.3205 13.14 56.3205C17.1567 56.6005 19.2667 60.4405 19.2667 60.4405C22.8333 66.5571 28.63 64.7905 30.9167 63.7671C31.2767 61.1805 32.3067 59.4171 33.45 58.4171C24.5667 57.4171 15.23 53.9771 15.23 38.6505C15.23 34.2838 16.78 30.7171 19.3467 27.9171C18.8967 26.9071 17.5467 22.8405 19.6967 17.3305C19.6967 17.3305 23.0467 16.2571 30.6967 21.4305C33.8967 20.5405 37.2967 20.1005 40.6967 20.0805C44.0967 20.1005 47.4967 20.5405 50.6967 21.4305C58.2967 16.2571 61.6467 17.3305 61.6467 17.3305C63.7967 22.8405 62.4467 26.9071 62.0467 27.9171C64.5967 30.7171 66.1467 34.2838 66.1467 38.6505C66.1467 54.0171 56.7967 57.4005 47.8967 58.3838C49.2967 59.5838 50.5967 62.0371 50.5967 65.7838C50.5967 71.1371 50.5467 75.4371 50.5467 76.7371C50.5467 77.7871 51.2467 79.0371 53.2967 78.6371C69.3 73.3905 80.75 58.3905 80.75 40.7405C80.75 18.6505 62.84 0.740479 40.75 0.740479Z"
          fill="#CDD9E5"/>
</svg>
