<svg width="81" height="81" viewBox="0 0 81 81" fill="none" xmlns="http://www.w3.org/2000/svg">
    <path d="M75.6248 45.27L71.6998 33.5L63.9398 10.15C63.8479 9.88565 63.6755 9.65668 63.4468 9.49527C63.2181 9.33385 62.9447 9.24809 62.6648 9.25003C62.3857 9.24914 62.1134 9.33538 61.8857 9.49672C61.658 9.65807 61.4864 9.88646 61.3948 10.15L53.6348 33.485H27.8598L20.0998 10.145C20.0079 9.88198 19.8361 9.65425 19.6084 9.49375C19.3806 9.33325 19.1084 9.24803 18.8298 9.25003C18.5505 9.24839 18.2778 9.33434 18.05 9.49579C17.8222 9.65723 17.6507 9.88605 17.5598 10.15L9.80976 33.485L5.88976 45.27C5.71627 45.7951 5.71644 46.3621 5.89023 46.8871C6.06403 47.4121 6.40222 47.8672 6.85476 48.185L40.7548 72.245L74.6448 48.185C75.0993 47.8687 75.4401 47.4145 75.6166 46.8895C75.793 46.3646 75.7959 45.7967 75.6248 45.27Z"
          fill="#FC6D26"/>
    <path d="M40.7502 72.23L53.6402 33.48H27.8652L40.7502 72.23Z" fill="#E24329"/>
    <path d="M40.7499 72.23L27.8549 33.48H9.81494L40.7499 72.23Z" fill="#FC6D26"/>
    <path d="M9.79999 33.4951L5.87999 45.2651C5.70651 45.7902 5.70667 46.3572 5.88047 46.8822C6.05426 47.4072 6.39245 47.8623 6.84499 48.1801L40.75 72.2501L9.79999 33.5001V33.4951Z"
          fill="#FCA326"/>
    <path d="M9.81006 33.495H27.8701L20.1001 10.16C20.0084 9.89647 19.8368 9.66807 19.6091 9.50673C19.3815 9.34539 19.1091 9.25915 18.8301 9.26004C18.5502 9.2581 18.2767 9.34386 18.048 9.50527C17.8193 9.66669 17.647 9.89566 17.5551 10.16L9.81006 33.495Z"
          fill="#E24329"/>
    <path d="M40.75 72.23L53.64 33.48H71.71L40.75 72.23Z" fill="#FC6D26"/>
    <path d="M71.7 33.4951L75.615 45.2651C75.7893 45.7901 75.7895 46.3574 75.6157 46.8826C75.4418 47.4078 75.1032 47.8628 74.65 48.1801L40.75 72.2301L71.69 33.4951H71.7Z"
          fill="#FCA326"/>
    <path d="M71.6999 33.4951H53.6499L61.4049 10.1601C61.4961 9.89527 61.6684 9.66588 61.8972 9.50436C62.126 9.34284 62.3998 9.25738 62.6799 9.26007C63.2549 9.26007 63.7649 9.62507 63.9499 10.1601L71.7099 33.4951H71.6999Z"
          fill="#E24329"/>
</svg>
