<svg width="81" height="71" viewBox="0 0 81 71" fill="none" xmlns="http://www.w3.org/2000/svg">
    <path d="M78.1677 16.5883C78.0326 16.2436 77.7816 15.9567 77.4579 15.777C77.1343 15.5972 76.7581 15.5358 76.3941 15.6032C76.03 15.6707 75.7008 15.8628 75.4631 16.1466C75.2253 16.4303 75.0937 16.7881 75.091 17.1583C75.091 17.335 75.1344 17.555 75.1777 17.7283C82.3444 36.7617 72.6743 57.9851 53.6443 65.1485C51.0352 66.131 48.3218 66.8099 45.5575 67.1719V49.9884C46.6576 49.7684 47.7109 49.4618 48.7642 49.1084V63.5685C66.9143 59.1285 78.0777 40.8451 73.641 22.695C72.534 18.1427 70.4934 13.8699 67.6485 10.1477C64.8036 6.42538 61.2164 3.33471 57.1143 1.07154C56.9327 0.969235 56.7327 0.904009 56.5257 0.879655C56.3187 0.8553 56.109 0.872302 55.9087 0.929674C55.7083 0.987046 55.5214 1.08364 55.3587 1.21386C55.196 1.34408 55.0608 1.50531 54.9609 1.68821C54.8586 1.86976 54.7934 2.06982 54.769 2.27678C54.7447 2.48374 54.7617 2.69348 54.8191 2.89381C54.8764 3.09415 54.973 3.28109 55.1032 3.44379C55.2335 3.60648 55.3947 3.74169 55.5776 3.84156C70.3877 12.0149 75.7477 30.695 67.5777 45.5051C64.1373 51.7473 58.6153 56.5839 51.9742 59.1718V46.3851C52.9654 46.0715 53.8314 45.4512 54.4473 44.6137C55.0631 43.7762 55.3971 42.7647 55.4009 41.7251C55.4009 39.9684 54.5209 38.3851 52.9842 37.5051C54.1276 26.475 59.1809 29.375 59.1809 25.8617V23.795C59.1809 18.5216 46.9642 1.33821 41.2475 0.941544H40.1942C34.4808 1.33821 22.2641 18.5216 22.2641 23.795V25.8617C22.2641 29.375 27.2741 26.475 28.4608 37.5051C27.7235 37.935 27.1122 38.5512 26.688 39.2918C26.2639 40.0325 26.0418 40.8716 26.0441 41.7251C26.0441 43.8784 27.4508 45.7251 29.4708 46.3851V59.1718C13.7841 52.9751 6.0507 35.1817 12.2441 19.4483C14.8592 12.8247 19.6888 7.31198 25.9108 3.84822C26.0976 3.74613 26.2621 3.60771 26.3946 3.4411C26.5271 3.2745 26.625 3.08308 26.6825 2.8781C26.7399 2.67311 26.7558 2.45871 26.7292 2.2475C26.7026 2.03629 26.634 1.83253 26.5275 1.64821C26.3822 1.40534 26.176 1.20467 25.9292 1.06609C25.6825 0.927517 25.4038 0.855854 25.1208 0.858211C24.857 0.862602 24.5993 0.937405 24.3741 1.07488C20.4815 3.21916 17.0499 6.10989 14.2756 9.58168C11.5013 13.0535 9.43878 17.0382 8.20595 21.3079C6.97312 25.5776 6.59423 30.0484 7.09095 34.4647C7.58766 38.881 8.95024 43.1559 11.1007 47.0451C13.3639 51.1472 16.4546 54.7344 20.1768 57.5793C23.8991 60.4242 28.1718 62.4649 32.7242 63.5718V49.1484C33.7775 49.5018 34.8342 49.8084 35.9308 50.0284V67.2119C15.7607 64.5352 1.60734 46.0318 4.29069 25.8617C4.65158 23.0975 5.32938 20.3841 6.3107 17.775C6.45441 17.378 6.43848 16.9407 6.26626 16.5552C6.09404 16.1697 5.77896 15.8661 5.38736 15.7083C4.99014 15.5688 4.55459 15.5868 4.17022 15.7585C3.78585 15.9303 3.48185 16.2427 3.32068 16.6316C-4.45602 37.3317 6.00403 60.4018 26.7041 68.1385C30.7041 69.6319 34.8775 70.4685 39.1375 70.6419V50.3418C39.7109 50.3818 40.7675 50.3818 40.7675 50.3818C40.7675 50.3818 41.8209 50.3818 42.3942 50.3384V70.5985C64.4976 69.6752 81.6377 51.0418 80.7144 28.935C80.4988 24.7138 79.64 20.5503 78.1677 16.5883ZM48.1042 39.3951C48.7249 38.7823 49.562 38.4388 50.4342 38.4388C51.3064 38.4388 52.1435 38.7823 52.7642 39.3951C53.377 40.0158 53.7205 40.8529 53.7205 41.7251C53.7205 42.5973 53.377 43.4344 52.7642 44.0551C52.1435 44.6678 51.3064 45.0114 50.4342 45.0114C49.562 45.0114 48.7249 44.6678 48.1042 44.0551C47.798 43.7492 47.5551 43.386 47.3894 42.9862C47.2237 42.5864 47.1384 42.1579 47.1384 41.7251C47.1384 41.2923 47.2237 40.8637 47.3894 40.4639C47.5551 40.0641 47.798 39.7009 48.1042 39.3951ZM33.3375 44.0551C32.7256 44.6665 31.8959 45.01 31.0308 45.01C30.1657 45.01 29.3361 44.6665 28.7241 44.0551C28.1114 43.4344 27.7678 42.5973 27.7678 41.7251C27.7678 40.8529 28.1114 40.0158 28.7241 39.3951C29.3449 38.7823 30.1819 38.4388 31.0541 38.4388C31.9263 38.4388 32.7634 38.7823 33.3842 39.3951C33.6895 39.7026 33.9309 40.0678 34.0941 40.4693C34.2574 40.8708 34.3394 41.3007 34.3354 41.7341C34.3314 42.1675 34.2414 42.5958 34.0707 42.9942C33.8999 43.3927 33.6519 43.7532 33.3408 44.0551H33.3375Z"
          fill="#179287"/>
</svg>
