<svg width="91" height="81" viewBox="0 0 91 81" fill="none" xmlns="http://www.w3.org/2000/svg">
    <path d="M54.1125 40.7594C54.1125 42.9826 53.2296 45.1148 51.6579 46.6871C50.0862 48.2595 47.9544 49.1434 45.7313 49.1444C43.5074 49.1444 41.3747 48.261 39.8022 46.6885C38.2297 45.116 37.3462 42.9832 37.3462 40.7594C37.3462 38.5362 38.2292 36.404 39.8008 34.8316C41.3725 33.2592 43.5043 32.3754 45.7275 32.3744C47.9513 32.3744 50.0841 33.2578 51.6566 34.8303C53.2291 36.4028 54.1125 38.5355 54.1125 40.7594ZM64.0425 0.671875C58.995 0.671875 52.3913 4.27188 45.7125 10.5044C39.0375 4.30563 32.43 0.746875 27.3863 0.746875C25.8488 0.746875 24.45 1.09562 23.2388 1.78937C18.0825 4.76312 16.9275 14.0294 19.59 25.6581C8.175 29.1831 0.75 34.8194 0.75 40.7594C0.75 46.7219 8.2125 52.3731 19.6613 55.8719C17.0213 67.5456 18.1987 76.8269 23.3663 79.7969C24.5662 80.4981 25.9537 80.8281 27.4987 80.8281C32.5425 80.8281 39.15 77.2281 45.8288 70.9881C52.5037 77.1906 59.1113 80.7494 64.155 80.7494C65.6925 80.7494 67.0912 80.4119 68.3025 79.7181C73.455 76.7481 74.6137 67.4819 71.9512 55.8494C83.325 52.3544 90.75 46.7069 90.75 40.7594C90.75 34.7969 83.2875 29.1456 71.8388 25.6394C74.4788 13.9769 73.3012 4.68813 68.1338 1.71438C66.9412 1.02437 65.5575 0.675625 64.0425 0.671875ZM64.0237 4.75938V4.78188C64.8675 4.78188 65.5462 4.94687 66.1162 5.25812C68.6137 6.69062 69.6975 12.1394 68.8537 19.1481C68.6512 20.8731 68.3213 22.6919 67.9162 24.5481C64.3162 23.6631 60.3937 22.9844 56.265 22.5456C53.79 19.1519 51.2212 16.0694 48.6338 13.3694C54.6038 7.81937 60.21 4.77437 64.0275 4.76312L64.0237 4.75938ZM27.3863 4.83437C31.1812 4.83437 36.8138 7.86437 42.7988 13.3844C40.2262 16.0844 37.6613 19.1481 35.2238 22.5419C31.0725 22.9806 27.1462 23.6594 23.55 24.5594C23.13 22.7219 22.8188 20.9444 22.5975 19.2344C21.735 12.2294 22.8 6.78437 25.275 5.33312C25.9875 4.99562 26.775 4.85313 27.3863 4.83437ZM45.6937 16.2719C47.4 18.0269 49.1063 19.9919 50.7938 22.1369C49.1437 22.0619 47.4562 22.0094 45.75 22.0094C44.025 22.0094 42.3188 22.0469 40.65 22.1369C42.3 19.9919 44.0062 18.0306 45.6937 16.2719ZM45.75 26.1194C48.525 26.1194 51.2887 26.2469 54.0075 26.4681C55.53 28.6506 57.015 30.9794 58.4438 33.4431C59.8388 35.8431 61.1063 38.2806 62.2612 40.7406C61.1063 43.1969 59.8388 45.6531 58.4625 48.0531C57.0375 50.5281 55.5638 52.8831 54.0375 55.0656C51.3075 55.3019 48.54 55.4331 45.75 55.4331C42.975 55.4331 40.2113 55.3019 37.4925 55.0844C35.97 52.9019 34.485 50.5694 33.0562 48.1094C31.6612 45.7094 30.3938 43.2719 29.2388 40.8119C30.375 38.3481 31.6612 35.8881 33.0375 33.4844C34.4625 31.0094 35.9362 28.6619 37.4625 26.4794C40.1925 26.2394 42.96 26.1119 45.75 26.1119V26.1194ZM32.1187 27.0719C31.2188 28.4856 30.3187 29.9331 29.4787 31.4219C28.635 32.8844 27.8475 34.3544 27.0975 35.8244C26.1038 33.3644 25.26 30.9119 24.5625 28.5231C26.9625 27.9606 29.4937 27.4581 32.1187 27.0719ZM59.3438 27.0719C61.95 27.4581 64.4625 27.9344 66.8662 28.5231C66.1913 30.8931 65.3475 33.3306 64.3913 35.7719C63.6413 34.3094 62.8537 32.8356 61.9912 31.3694C61.1475 29.8994 60.2475 28.4669 59.3475 27.0719H59.3438ZM70.83 29.6031C72.645 30.1656 74.37 30.7919 75.9863 31.4706C82.4812 34.2456 86.6813 37.8756 86.6813 40.7556C86.6625 43.6356 82.4625 47.2806 75.9675 50.0369C74.3925 50.7119 72.6675 51.3194 70.8862 51.8856C69.8363 48.2931 68.4638 44.5506 66.7613 40.7106C68.4488 36.8969 69.7988 33.1731 70.83 29.5956V29.6031ZM20.5988 29.6181C21.6413 33.2181 23.0175 36.9569 24.7238 40.7931C23.0363 44.6069 21.6788 48.3306 20.6513 51.9081C18.8363 51.3456 17.1112 50.7156 15.5138 50.0331C9.01875 47.2694 4.81875 43.6356 4.81875 40.7556C4.81875 37.8756 9.01875 34.2231 15.5138 31.4706C17.0888 30.7956 18.8138 30.1881 20.5988 29.6181ZM64.3913 45.6681C65.385 48.1319 66.2287 50.5881 66.9262 52.9731C64.5262 53.5619 61.9912 54.0606 59.3662 54.4356C60.2662 53.0294 61.1663 51.5781 62.01 50.0931C62.8538 48.6306 63.6375 47.1381 64.3913 45.6681ZM27.0975 45.7431C27.8475 47.2131 28.635 48.6794 29.4975 50.1494C30.36 51.6119 31.2413 53.0444 32.1413 54.4356C29.535 54.0531 27.0225 53.5731 24.6187 52.9881C25.2937 50.6256 26.1413 48.1806 27.0938 45.7394L27.0975 45.7431ZM67.95 56.9444C68.37 58.7931 68.7 60.5744 68.9025 62.2806C69.765 69.2856 68.7 74.7306 66.225 76.1856C65.6737 76.5231 64.9575 76.6656 64.1137 76.6656C60.3187 76.6656 54.6862 73.6394 48.7012 68.1156C51.2738 65.4156 53.8387 62.3556 56.2762 58.9656C60.4275 58.5231 64.3538 57.8444 67.95 56.9444ZM23.5875 56.9819C27.1875 57.8594 31.11 58.5381 35.2387 58.9769C37.7137 62.3706 40.2825 65.4531 42.87 68.1494C36.8888 73.7106 31.275 76.7556 27.4575 76.7556C26.6325 76.7369 25.935 76.5681 25.3837 76.2606C22.8862 74.8356 21.8025 69.3831 22.6463 62.3744C22.8488 60.6494 23.1825 58.8344 23.5875 56.9819ZM40.6875 59.3819C42.3375 59.4569 44.025 59.5094 45.7313 59.5094C47.4562 59.5094 49.1625 59.4719 50.8312 59.3819C49.1812 61.5269 47.475 63.4881 45.7875 65.2506C44.0812 63.4881 42.375 61.5269 40.6875 59.3819Z"
          fill="#149ECA"/>
</svg>
