<svg viewBox="0 0 81 81" xmlns="http://www.w3.org/2000/svg">

    <defs>
        <style><![CDATA[
      .sprite { display: none; }
      .sprite:target { display: inline; }
    ]]></style>
    </defs>

    <g class="sprite" id="angular">
        <path d="M40.75 0.673096L0.75 16.0577L6.90385 68.3654L40.75 86.8269L74.5962 68.3654L80.75 16.0577L40.75 0.673096Z"
              fill="#DD0031"/>
        <path d="M40.75 0.673096V86.8269L74.5962 68.3654L80.75 16.0577L40.75 0.673096Z" fill="#C3002F"/>
        <path d="M40.7494 10.1923L15.744 66.4078H25.0672L30.094 53.8291H51.3186L56.3454 66.4078H65.6688L40.7494 10.1923ZM48.0534 46.0752H33.4454L40.7494 28.4571L48.0534 46.0752Z"
              fill="white"/>
    </g>
    <g class="sprite" id="github">
        <path d="M40.75 0.740479C18.65 0.740479 0.75 18.6505 0.75 40.7405C0.75 58.4171 12.21 73.4071 28.1 78.6905C30.1 79.0671 30.8333 77.8305 30.8333 76.7671C30.8333 75.8171 30.8 73.3005 30.7833 69.9671C19.6567 72.3805 17.31 64.6005 17.31 64.6005C15.49 59.9838 12.86 58.7505 12.86 58.7505C9.23667 56.2705 13.14 56.3205 13.14 56.3205C17.1567 56.6005 19.2667 60.4405 19.2667 60.4405C22.8333 66.5571 28.63 64.7905 30.9167 63.7671C31.2767 61.1805 32.3067 59.4171 33.45 58.4171C24.5667 57.4171 15.23 53.9771 15.23 38.6505C15.23 34.2838 16.78 30.7171 19.3467 27.9171C18.8967 26.9071 17.5467 22.8405 19.6967 17.3305C19.6967 17.3305 23.0467 16.2571 30.6967 21.4305C33.8967 20.5405 37.2967 20.1005 40.6967 20.0805C44.0967 20.1005 47.4967 20.5405 50.6967 21.4305C58.2967 16.2571 61.6467 17.3305 61.6467 17.3305C63.7967 22.8405 62.4467 26.9071 62.0467 27.9171C64.5967 30.7171 66.1467 34.2838 66.1467 38.6505C66.1467 54.0171 56.7967 57.4005 47.8967 58.3838C49.2967 59.5838 50.5967 62.0371 50.5967 65.7838C50.5967 71.1371 50.5467 75.4371 50.5467 76.7371C50.5467 77.7871 51.2467 79.0371 53.2967 78.6371C69.3 73.3905 80.75 58.3905 80.75 40.7405C80.75 18.6505 62.84 0.740479 40.75 0.740479Z"
              fill="#CDD9E5"/>
    </g>
    <g class="sprite" id="gitlab">
        <path d="M75.6248 45.27L71.6998 33.5L63.9398 10.15C63.8479 9.88565 63.6755 9.65668 63.4468 9.49527C63.2181 9.33385 62.9447 9.24809 62.6648 9.25003C62.3857 9.24914 62.1134 9.33538 61.8857 9.49672C61.658 9.65807 61.4864 9.88646 61.3948 10.15L53.6348 33.485H27.8598L20.0998 10.145C20.0079 9.88198 19.8361 9.65425 19.6084 9.49375C19.3806 9.33325 19.1084 9.24803 18.8298 9.25003C18.5505 9.24839 18.2778 9.33434 18.05 9.49579C17.8222 9.65723 17.6507 9.88605 17.5598 10.15L9.80976 33.485L5.88976 45.27C5.71627 45.7951 5.71644 46.3621 5.89023 46.8871C6.06403 47.4121 6.40222 47.8672 6.85476 48.185L40.7548 72.245L74.6448 48.185C75.0993 47.8687 75.4401 47.4145 75.6166 46.8895C75.793 46.3646 75.7959 45.7967 75.6248 45.27Z"
              fill="#FC6D26"/>
        <path d="M40.7502 72.23L53.6402 33.48H27.8652L40.7502 72.23Z" fill="#E24329"/>
        <path d="M40.7499 72.23L27.8549 33.48H9.81494L40.7499 72.23Z" fill="#FC6D26"/>
        <path d="M9.79999 33.4951L5.87999 45.2651C5.70651 45.7902 5.70667 46.3572 5.88047 46.8822C6.05426 47.4072 6.39245 47.8623 6.84499 48.1801L40.75 72.2501L9.79999 33.5001V33.4951Z"
              fill="#FCA326"/>
        <path d="M9.81006 33.495H27.8701L20.1001 10.16C20.0084 9.89647 19.8368 9.66807 19.6091 9.50673C19.3815 9.34539 19.1091 9.25915 18.8301 9.26004C18.5502 9.2581 18.2767 9.34386 18.048 9.50527C17.8193 9.66669 17.647 9.89566 17.5551 10.16L9.81006 33.495Z"
              fill="#E24329"/>
        <path d="M40.75 72.23L53.64 33.48H71.71L40.75 72.23Z" fill="#FC6D26"/>
        <path d="M71.7 33.4951L75.615 45.2651C75.7893 45.7901 75.7895 46.3574 75.6157 46.8826C75.4418 47.4078 75.1032 47.8628 74.65 48.1801L40.75 72.2301L71.69 33.4951H71.7Z"
              fill="#FCA326"/>
        <path d="M71.6999 33.4951H53.6499L61.4049 10.1601C61.4961 9.89527 61.6684 9.66588 61.8972 9.50436C62.126 9.34284 62.3998 9.25738 62.6799 9.26007C63.2549 9.26007 63.7649 9.62507 63.9499 10.1601L71.7099 33.4951H71.6999Z"
              fill="#E24329"/>
    </g>
    <g class="sprite" id="js">
        <path d="M0.75 0.75H80.75V80.75H0.75V0.75ZM74.1967 61.67C73.6133 58.02 71.2367 54.9533 64.1867 52.0933C61.7333 50.9433 59.0067 50.1433 58.1967 48.2933C57.8933 47.1933 57.8467 46.5933 58.0433 45.9433C58.5433 43.79 61.0933 43.1433 63.0933 43.7433C64.3933 44.1433 65.5933 45.1433 66.3467 46.7433C69.7933 44.49 69.7933 44.49 72.1967 42.9933C71.2967 41.5933 70.85 40.99 70.2433 40.3933C68.1433 38.0433 65.3467 36.8433 60.7967 36.9467L58.4467 37.2433C56.1933 37.7933 54.0467 38.9933 52.7467 40.5933C48.9467 44.8967 50.0433 52.3967 54.6433 55.4967C59.1933 58.8967 65.8467 59.6433 66.6967 62.8467C67.4967 66.7467 63.7967 67.9967 60.1433 67.5467C57.44 66.9467 55.9433 65.5933 54.2933 63.0933L48.1933 66.5967C48.8933 68.1967 49.6933 68.8933 50.8933 70.2933C56.6933 76.1467 71.1933 75.8467 73.7967 66.9467C73.8933 66.6467 74.5967 64.5967 74.0433 61.4467L74.1967 61.67ZM44.2533 37.52H36.76C36.76 43.98 36.73 50.4 36.73 56.87C36.73 60.9767 36.94 64.7467 36.27 65.9067C35.17 68.2033 32.3367 67.91 31.05 67.5067C29.73 66.8533 29.06 65.9533 28.2833 64.6567C28.0733 64.3067 27.9167 64.0033 27.86 64.0033L21.7767 67.7533C22.7933 69.8533 24.2767 71.66 26.19 72.81C29.04 74.51 32.87 75.06 36.88 74.16C39.49 73.4067 41.74 71.8567 42.9167 69.4567C44.6167 66.3567 44.2567 62.5567 44.24 58.3033C44.28 51.4567 44.24 44.6067 44.24 37.7067L44.2533 37.52Z"
              fill="#F7DF1E"/>
    </g>
    <g class="sprite" id="kraken">
        <path d="M78.1677 16.5883C78.0326 16.2436 77.7816 15.9567 77.4579 15.777C77.1343 15.5972 76.7581 15.5358 76.3941 15.6032C76.03 15.6707 75.7008 15.8628 75.4631 16.1466C75.2253 16.4303 75.0937 16.7881 75.091 17.1583C75.091 17.335 75.1344 17.555 75.1777 17.7283C82.3444 36.7617 72.6743 57.9851 53.6443 65.1485C51.0352 66.131 48.3218 66.8099 45.5575 67.1719V49.9884C46.6576 49.7684 47.7109 49.4618 48.7642 49.1084V63.5685C66.9143 59.1285 78.0777 40.8451 73.641 22.695C72.534 18.1427 70.4934 13.8699 67.6485 10.1477C64.8036 6.42538 61.2164 3.33471 57.1143 1.07154C56.9327 0.969235 56.7327 0.904009 56.5257 0.879655C56.3187 0.8553 56.109 0.872302 55.9087 0.929674C55.7083 0.987046 55.5214 1.08364 55.3587 1.21386C55.196 1.34408 55.0608 1.50531 54.9609 1.68821C54.8586 1.86976 54.7934 2.06982 54.769 2.27678C54.7447 2.48374 54.7617 2.69348 54.8191 2.89381C54.8764 3.09415 54.973 3.28109 55.1032 3.44379C55.2335 3.60648 55.3947 3.74169 55.5776 3.84156C70.3877 12.0149 75.7477 30.695 67.5777 45.5051C64.1373 51.7473 58.6153 56.5839 51.9742 59.1718V46.3851C52.9654 46.0715 53.8314 45.4512 54.4473 44.6137C55.0631 43.7762 55.3971 42.7647 55.4009 41.7251C55.4009 39.9684 54.5209 38.3851 52.9842 37.5051C54.1276 26.475 59.1809 29.375 59.1809 25.8617V23.795C59.1809 18.5216 46.9642 1.33821 41.2475 0.941544H40.1942C34.4808 1.33821 22.2641 18.5216 22.2641 23.795V25.8617C22.2641 29.375 27.2741 26.475 28.4608 37.5051C27.7235 37.935 27.1122 38.5512 26.688 39.2918C26.2639 40.0325 26.0418 40.8716 26.0441 41.7251C26.0441 43.8784 27.4508 45.7251 29.4708 46.3851V59.1718C13.7841 52.9751 6.0507 35.1817 12.2441 19.4483C14.8592 12.8247 19.6888 7.31198 25.9108 3.84822C26.0976 3.74613 26.2621 3.60771 26.3946 3.4411C26.5271 3.2745 26.625 3.08308 26.6825 2.8781C26.7399 2.67311 26.7558 2.45871 26.7292 2.2475C26.7026 2.03629 26.634 1.83253 26.5275 1.64821C26.3822 1.40534 26.176 1.20467 25.9292 1.06609C25.6825 0.927517 25.4038 0.855854 25.1208 0.858211C24.857 0.862602 24.5993 0.937405 24.3741 1.07488C20.4815 3.21916 17.0499 6.10989 14.2756 9.58168C11.5013 13.0535 9.43878 17.0382 8.20595 21.3079C6.97312 25.5776 6.59423 30.0484 7.09095 34.4647C7.58766 38.881 8.95024 43.1559 11.1007 47.0451C13.3639 51.1472 16.4546 54.7344 20.1768 57.5793C23.8991 60.4242 28.1718 62.4649 32.7242 63.5718V49.1484C33.7775 49.5018 34.8342 49.8084 35.9308 50.0284V67.2119C15.7607 64.5352 1.60734 46.0318 4.29069 25.8617C4.65158 23.0975 5.32938 20.3841 6.3107 17.775C6.45441 17.378 6.43848 16.9407 6.26626 16.5552C6.09404 16.1697 5.77896 15.8661 5.38736 15.7083C4.99014 15.5688 4.55459 15.5868 4.17022 15.7585C3.78585 15.9303 3.48185 16.2427 3.32068 16.6316C-4.45602 37.3317 6.00403 60.4018 26.7041 68.1385C30.7041 69.6319 34.8775 70.4685 39.1375 70.6419V50.3418C39.7109 50.3818 40.7675 50.3818 40.7675 50.3818C40.7675 50.3818 41.8209 50.3818 42.3942 50.3384V70.5985C64.4976 69.6752 81.6377 51.0418 80.7144 28.935C80.4988 24.7138 79.64 20.5503 78.1677 16.5883ZM48.1042 39.3951C48.7249 38.7823 49.562 38.4388 50.4342 38.4388C51.3064 38.4388 52.1435 38.7823 52.7642 39.3951C53.377 40.0158 53.7205 40.8529 53.7205 41.7251C53.7205 42.5973 53.377 43.4344 52.7642 44.0551C52.1435 44.6678 51.3064 45.0114 50.4342 45.0114C49.562 45.0114 48.7249 44.6678 48.1042 44.0551C47.798 43.7492 47.5551 43.386 47.3894 42.9862C47.2237 42.5864 47.1384 42.1579 47.1384 41.7251C47.1384 41.2923 47.2237 40.8637 47.3894 40.4639C47.5551 40.0641 47.798 39.7009 48.1042 39.3951ZM33.3375 44.0551C32.7256 44.6665 31.8959 45.01 31.0308 45.01C30.1657 45.01 29.3361 44.6665 28.7241 44.0551C28.1114 43.4344 27.7678 42.5973 27.7678 41.7251C27.7678 40.8529 28.1114 40.0158 28.7241 39.3951C29.3449 38.7823 30.1819 38.4388 31.0541 38.4388C31.9263 38.4388 32.7634 38.7823 33.3842 39.3951C33.6895 39.7026 33.9309 40.0678 34.0941 40.4693C34.2574 40.8708 34.3394 41.3007 34.3354 41.7341C34.3314 42.1675 34.2414 42.5958 34.0707 42.9942C33.8999 43.3927 33.6519 43.7532 33.3408 44.0551H33.3375Z"
              fill="#179287"/>
    </g>
    <g class="sprite" id="lighthouse">
        <g clip-path="url(#clip0_755_1149)">
            <path d="M45.7498 90.7486C70.6022 90.7486 90.7491 70.6017 90.7491 45.7493C90.7491 20.8969 70.6022 0.75 45.7498 0.75C20.8974 0.75 0.750488 20.8969 0.750488 45.7493C0.750488 70.6017 20.8974 90.7486 45.7498 90.7486Z"
                  fill="#394CE2"/>
            <path d="M90.5751 49.7125L56.6595 15.7969L45.7509 6.90381L34.8417 15.7969V21.0421L36.3939 22.1402L31.9234 74.0231H26.2998V80.1422L35.8017 89.644C39.0023 90.3665 42.3316 90.7499 45.7505 90.7499C69.2679 90.7501 88.5682 72.7089 90.5751 49.7125Z"
                  fill="#1B2DDD"/>
            <path d="M54.7894 18.4504H36.712L31.8657 74.6955H59.6358L54.7894 18.4504Z" fill="white"/>
            <path d="M59.6357 74.6955L54.7892 18.4504H45.75V74.6955H59.6357Z" fill="#E1E1E3"/>
            <path d="M45.751 6.90356L34.8418 15.7969V21.042H56.6594V15.7969L45.751 6.90356Z" fill="#FFA91F"/>
            <path d="M56.6593 21.042V15.7969L45.7509 6.90356L45.75 6.90427V21.042H56.6593Z" fill="#FF8800"/>
            <path d="M35.1333 36.7698L33.4438 56.3762H58.0569L56.3675 36.7698H35.1333Z" fill="#FF3C62"/>
            <path d="M48.7946 28.6517C48.7946 26.9775 47.4247 25.6077 45.7505 25.6077C44.0764 25.6077 42.7065 26.9775 42.7065 28.6517V32.3046H48.7946V28.6517Z"
                  fill="#3C3B41"/>
            <path d="M48.7945 28.6517C48.7945 26.9775 47.4247 25.6077 45.7505 25.6077H45.75V32.3044H48.7945V28.6517Z"
                  fill="#29292B"/>
            <path d="M65.2008 74.0237H26.2993V80.1437H65.2008V74.0237Z" fill="#FFA91F"/>
            <path d="M65.2007 74.0237H45.75V80.1437H65.2007V74.0237Z" fill="#FF8800"/>
            <path d="M56.3677 36.7698H45.75V56.3762H58.0571L56.3677 36.7698Z" fill="#FF0335"/>
        </g>
        <defs>
            <clipPath id="clip0_755_1149">
                <rect width="90" height="90" fill="white" transform="translate(0.75 0.75)"/>
            </clipPath>
        </defs>
    </g>
    <g class="sprite" id="react">
        <path d="M54.1125 40.7594C54.1125 42.9826 53.2296 45.1148 51.6579 46.6871C50.0862 48.2595 47.9544 49.1434 45.7313 49.1444C43.5074 49.1444 41.3747 48.261 39.8022 46.6885C38.2297 45.116 37.3462 42.9832 37.3462 40.7594C37.3462 38.5362 38.2292 36.404 39.8008 34.8316C41.3725 33.2592 43.5043 32.3754 45.7275 32.3744C47.9513 32.3744 50.0841 33.2578 51.6566 34.8303C53.2291 36.4028 54.1125 38.5355 54.1125 40.7594ZM64.0425 0.671875C58.995 0.671875 52.3913 4.27188 45.7125 10.5044C39.0375 4.30563 32.43 0.746875 27.3863 0.746875C25.8488 0.746875 24.45 1.09562 23.2388 1.78937C18.0825 4.76312 16.9275 14.0294 19.59 25.6581C8.175 29.1831 0.75 34.8194 0.75 40.7594C0.75 46.7219 8.2125 52.3731 19.6613 55.8719C17.0213 67.5456 18.1987 76.8269 23.3663 79.7969C24.5662 80.4981 25.9537 80.8281 27.4987 80.8281C32.5425 80.8281 39.15 77.2281 45.8288 70.9881C52.5037 77.1906 59.1113 80.7494 64.155 80.7494C65.6925 80.7494 67.0912 80.4119 68.3025 79.7181C73.455 76.7481 74.6137 67.4819 71.9512 55.8494C83.325 52.3544 90.75 46.7069 90.75 40.7594C90.75 34.7969 83.2875 29.1456 71.8388 25.6394C74.4788 13.9769 73.3012 4.68813 68.1338 1.71438C66.9412 1.02437 65.5575 0.675625 64.0425 0.671875ZM64.0237 4.75938V4.78188C64.8675 4.78188 65.5462 4.94687 66.1162 5.25812C68.6137 6.69062 69.6975 12.1394 68.8537 19.1481C68.6512 20.8731 68.3213 22.6919 67.9162 24.5481C64.3162 23.6631 60.3937 22.9844 56.265 22.5456C53.79 19.1519 51.2212 16.0694 48.6338 13.3694C54.6038 7.81937 60.21 4.77437 64.0275 4.76312L64.0237 4.75938ZM27.3863 4.83437C31.1812 4.83437 36.8138 7.86437 42.7988 13.3844C40.2262 16.0844 37.6613 19.1481 35.2238 22.5419C31.0725 22.9806 27.1462 23.6594 23.55 24.5594C23.13 22.7219 22.8188 20.9444 22.5975 19.2344C21.735 12.2294 22.8 6.78437 25.275 5.33312C25.9875 4.99562 26.775 4.85313 27.3863 4.83437ZM45.6937 16.2719C47.4 18.0269 49.1063 19.9919 50.7938 22.1369C49.1437 22.0619 47.4562 22.0094 45.75 22.0094C44.025 22.0094 42.3188 22.0469 40.65 22.1369C42.3 19.9919 44.0062 18.0306 45.6937 16.2719ZM45.75 26.1194C48.525 26.1194 51.2887 26.2469 54.0075 26.4681C55.53 28.6506 57.015 30.9794 58.4438 33.4431C59.8388 35.8431 61.1063 38.2806 62.2612 40.7406C61.1063 43.1969 59.8388 45.6531 58.4625 48.0531C57.0375 50.5281 55.5638 52.8831 54.0375 55.0656C51.3075 55.3019 48.54 55.4331 45.75 55.4331C42.975 55.4331 40.2113 55.3019 37.4925 55.0844C35.97 52.9019 34.485 50.5694 33.0562 48.1094C31.6612 45.7094 30.3938 43.2719 29.2388 40.8119C30.375 38.3481 31.6612 35.8881 33.0375 33.4844C34.4625 31.0094 35.9362 28.6619 37.4625 26.4794C40.1925 26.2394 42.96 26.1119 45.75 26.1119V26.1194ZM32.1187 27.0719C31.2188 28.4856 30.3187 29.9331 29.4787 31.4219C28.635 32.8844 27.8475 34.3544 27.0975 35.8244C26.1038 33.3644 25.26 30.9119 24.5625 28.5231C26.9625 27.9606 29.4937 27.4581 32.1187 27.0719ZM59.3438 27.0719C61.95 27.4581 64.4625 27.9344 66.8662 28.5231C66.1913 30.8931 65.3475 33.3306 64.3913 35.7719C63.6413 34.3094 62.8537 32.8356 61.9912 31.3694C61.1475 29.8994 60.2475 28.4669 59.3475 27.0719H59.3438ZM70.83 29.6031C72.645 30.1656 74.37 30.7919 75.9863 31.4706C82.4812 34.2456 86.6813 37.8756 86.6813 40.7556C86.6625 43.6356 82.4625 47.2806 75.9675 50.0369C74.3925 50.7119 72.6675 51.3194 70.8862 51.8856C69.8363 48.2931 68.4638 44.5506 66.7613 40.7106C68.4488 36.8969 69.7988 33.1731 70.83 29.5956V29.6031ZM20.5988 29.6181C21.6413 33.2181 23.0175 36.9569 24.7238 40.7931C23.0363 44.6069 21.6788 48.3306 20.6513 51.9081C18.8363 51.3456 17.1112 50.7156 15.5138 50.0331C9.01875 47.2694 4.81875 43.6356 4.81875 40.7556C4.81875 37.8756 9.01875 34.2231 15.5138 31.4706C17.0888 30.7956 18.8138 30.1881 20.5988 29.6181ZM64.3913 45.6681C65.385 48.1319 66.2287 50.5881 66.9262 52.9731C64.5262 53.5619 61.9912 54.0606 59.3662 54.4356C60.2662 53.0294 61.1663 51.5781 62.01 50.0931C62.8538 48.6306 63.6375 47.1381 64.3913 45.6681ZM27.0975 45.7431C27.8475 47.2131 28.635 48.6794 29.4975 50.1494C30.36 51.6119 31.2413 53.0444 32.1413 54.4356C29.535 54.0531 27.0225 53.5731 24.6187 52.9881C25.2937 50.6256 26.1413 48.1806 27.0938 45.7394L27.0975 45.7431ZM67.95 56.9444C68.37 58.7931 68.7 60.5744 68.9025 62.2806C69.765 69.2856 68.7 74.7306 66.225 76.1856C65.6737 76.5231 64.9575 76.6656 64.1137 76.6656C60.3187 76.6656 54.6862 73.6394 48.7012 68.1156C51.2738 65.4156 53.8387 62.3556 56.2762 58.9656C60.4275 58.5231 64.3538 57.8444 67.95 56.9444ZM23.5875 56.9819C27.1875 57.8594 31.11 58.5381 35.2387 58.9769C37.7137 62.3706 40.2825 65.4531 42.87 68.1494C36.8888 73.7106 31.275 76.7556 27.4575 76.7556C26.6325 76.7369 25.935 76.5681 25.3837 76.2606C22.8862 74.8356 21.8025 69.3831 22.6463 62.3744C22.8488 60.6494 23.1825 58.8344 23.5875 56.9819ZM40.6875 59.3819C42.3375 59.4569 44.025 59.5094 45.7313 59.5094C47.4562 59.5094 49.1625 59.4719 50.8312 59.3819C49.1812 61.5269 47.475 63.4881 45.7875 65.2506C44.0812 63.4881 42.375 61.5269 40.6875 59.3819Z"
              fill="#149ECA"/>
    </g>
    <g class="sprite" id="sass">
        <path d="M40.75 0.75C62.84 0.75 80.75 18.66 80.75 40.75C80.75 62.84 62.84 80.75 40.75 80.75C18.66 80.75 0.75 62.84 0.75 40.75C0.75 18.66 18.66 0.75 40.75 0.75ZM32.8 54.0767C33.3833 56.2267 33.32 58.2367 32.72 60.05L32.5033 60.65C32.4233 60.8533 32.33 61.05 32.2433 61.2367C31.7767 62.2033 31.1567 63.1033 30.3933 63.9367C28.0667 66.4667 24.82 67.4267 23.4267 66.62C21.9267 65.7467 22.6733 62.17 25.3733 59.32C28.2767 56.26 32.44 54.29 32.44 54.29V54.28L32.8 54.0767ZM65.8367 17.8733C64.03 10.7633 52.2467 8.42667 41.0967 12.39C34.4667 14.7467 27.2833 18.45 22.12 23.28C15.9767 29.0167 15 34.0167 15.4033 36.1067C16.8267 43.4767 26.9267 48.2967 31.08 51.8733V51.8933C29.8567 52.4933 20.8933 56.99 18.7933 61.6433C16.5433 66.5433 19.1433 70.0467 20.8433 70.4933C26.0933 71.9467 31.4933 69.2933 34.3933 64.9967C37.1933 60.7933 36.9467 55.3933 35.74 52.7433C37.3933 52.2933 39.34 52.0933 41.84 52.3967C48.8433 53.1967 50.2433 57.5967 49.94 59.3967C49.64 61.1933 48.1967 62.2433 47.6933 62.5433C47.1933 62.8467 47.0433 62.9433 47.09 63.1467C47.14 63.4467 47.3933 63.4467 47.79 63.3967C48.34 63.2967 51.4433 61.8967 51.5933 58.4933C51.7433 54.1933 47.64 49.3967 40.3433 49.4933C37.3433 49.5467 35.44 49.7967 34.0933 50.3467C33.9933 50.1967 33.89 50.0967 33.7433 49.9967C29.2433 45.1467 20.8933 41.7467 21.2433 35.2967C21.3433 32.9467 22.1933 26.75 37.2433 19.25C49.5933 13.0967 59.4467 14.8 61.1467 18.55C63.59 23.8967 55.8933 33.85 43.0433 35.2967C38.1433 35.8467 35.5933 33.95 34.94 33.2467C34.2433 32.4967 34.1433 32.4467 33.8933 32.6C33.4933 32.8 33.7433 33.45 33.8933 33.85C34.2933 34.85 35.8433 36.6 38.5467 37.5C40.8933 38.25 46.6467 38.6967 53.5467 36C61.2933 33.0033 67.3433 24.65 65.5933 17.65L65.8367 17.8733Z"
              fill="#CC6699"/>
    </g>
</svg>