<svg width="23" height="26" viewBox="0 0 23 26" fill="none" xmlns="http://www.w3.org/2000/svg">
    <path fill-rule="evenodd" clip-rule="evenodd"
          d="M10.4601 2.08V3.16681C4.63294 3.69305 0.0600586 8.59664 0.0600586 14.56C0.0600586 20.8738 5.18622 26 11.5001 26C17.8139 26 22.9401 20.8738 22.9401 14.56C22.9401 11.5107 21.7451 8.73912 19.7982 6.68824L20.313 6.16408L21.0556 6.91809C21.4581 7.32785 22.1164 7.33305 22.5261 6.93161C22.9359 6.52913 22.9411 5.86976 22.5386 5.46L19.5216 2.39097C19.1191 1.98121 18.4608 1.97599 18.051 2.37847C17.6413 2.78095 17.6361 3.43927 18.0385 3.84903L18.8549 4.68L18.233 5.31232C16.6065 4.12568 14.6554 3.35817 12.5401 3.16681V2.08H13.6872C14.2613 2.08 14.7272 1.61408 14.7272 1.04C14.7272 0.46592 14.2613 0 13.6872 0H9.42006C8.84598 0 8.38006 0.46592 8.38006 1.04C8.38006 1.61408 8.84598 2.08 9.42006 2.08H10.4601ZM11.5001 5.2C16.6657 5.2 20.8601 9.39432 20.8601 14.56C20.8601 19.7257 16.6657 23.92 11.5001 23.92C6.33438 23.92 2.14006 19.7257 2.14006 14.56C2.14006 9.39432 6.33438 5.2 11.5001 5.2ZM10.4601 9.36V14.56C10.4601 14.9074 10.6337 15.2329 10.9229 15.4253L14.5629 17.8516C15.0413 18.1709 15.6871 18.0409 16.0053 17.5635C16.3236 17.0862 16.1946 16.4393 15.7173 16.121L12.5401 14.0036V9.36C12.5401 8.78592 12.0741 8.32 11.5001 8.32C10.926 8.32 10.4601 8.78592 10.4601 9.36Z"
          fill="#C4C4C4"/>
</svg>
