<svg width="165" height="43" viewBox="0 0 165 43" fill="none" xmlns="http://www.w3.org/2000/svg">
    <g filter="url(#filter0_d_705_494)">
        <path fill-rule="evenodd" clip-rule="evenodd"
              d="M20.4814 0.240465C21.1226 -0.080155 21.8774 -0.080155 22.5186 0.240465L40.7408 9.35157C41.5126 9.73741 42 10.5261 42 11.3889C42 12.2516 41.5126 13.0404 40.7408 13.4262L36.0033 15.795L40.839 18.5151C41.5736 18.9283 42.0198 19.7133 41.9993 20.5558C41.9788 21.3983 41.4948 22.1607 40.7408 22.5377L36.0035 24.9064L40.839 27.6262C41.5736 28.0394 42.0198 28.8244 41.9993 29.6669C41.9788 30.5095 41.4948 31.2718 40.7408 31.6488L22.5186 40.7599C21.8774 41.0806 21.1226 41.0806 20.4814 40.7599L2.25913 31.6488C1.5053 31.2718 1.02121 30.5095 1.00068 29.6669C0.980138 28.8244 1.42651 28.0394 2.16107 27.6262L6.99643 24.9064L2.25913 22.5377C1.5053 22.1607 1.02121 21.3983 1.00068 20.5558C0.980138 19.7133 1.42651 18.9283 2.16107 18.5151L6.99682 15.795L2.25913 13.4262C1.48744 13.0404 1 12.2516 1 11.3889C1 10.5261 1.48744 9.73741 2.25913 9.35157L20.4814 0.240465ZM11.9158 27.3661L8.1343 29.4931L21.5 36.1759L34.8658 29.4931L31.0842 27.3661L22.5186 31.6488C21.8774 31.9695 21.1226 31.9695 20.4814 31.6488L11.9158 27.3661ZM22.5186 22.5372L31.0837 18.2548L34.8658 20.382L21.5 27.0648L8.1343 20.382L11.9162 18.2548L20.4814 22.5372C21.1226 22.8579 21.8774 22.8579 22.5186 22.5372Z"
              fill="white"/>
        <path d="M55.576 20.216C54.936 20.216 54.44 20.04 54.088 19.688C53.752 19.336 53.584 18.84 53.584 18.2V4.88C53.584 4.224 53.768 3.728 54.136 3.392C54.504 3.04 55.024 2.864 55.696 2.864C56.256 2.864 56.696 2.976 57.016 3.2C57.352 3.408 57.656 3.76 57.928 4.256L63.088 13.52H62.248L67.384 4.256C67.672 3.76 67.976 3.408 68.296 3.2C68.632 2.976 69.08 2.864 69.64 2.864C70.28 2.864 70.768 3.04 71.104 3.392C71.456 3.728 71.632 4.224 71.632 4.88V18.2C71.632 18.84 71.464 19.336 71.128 19.688C70.792 20.04 70.296 20.216 69.64 20.216C69 20.216 68.504 20.04 68.152 19.688C67.816 19.336 67.648 18.84 67.648 18.2V9.944H68.152L64.288 16.664C64.064 17.016 63.824 17.28 63.568 17.456C63.328 17.632 63 17.72 62.584 17.72C62.184 17.72 61.856 17.632 61.6 17.456C61.344 17.28 61.112 17.016 60.904 16.664L57.016 9.92H57.568V18.2C57.568 18.84 57.4 19.336 57.064 19.688C56.728 20.04 56.232 20.216 55.576 20.216Z"
              fill="white"/>
        <path d="M77.7709 20C77.0189 20 76.4429 19.808 76.0429 19.424C75.6589 19.024 75.4669 18.456 75.4669 17.72V5.36C75.4669 4.624 75.6589 4.064 76.0429 3.68C76.4429 3.28 77.0189 3.08 77.7709 3.08H85.9069C86.4829 3.08 86.9149 3.224 87.2029 3.512C87.4909 3.8 87.6349 4.216 87.6349 4.76C87.6349 5.32 87.4909 5.752 87.2029 6.056C86.9149 6.344 86.4829 6.488 85.9069 6.488H79.6909V9.704H85.3789C85.9389 9.704 86.3629 9.848 86.6509 10.136C86.9549 10.424 87.1069 10.848 87.1069 11.408C87.1069 11.968 86.9549 12.392 86.6509 12.68C86.3629 12.968 85.9389 13.112 85.3789 13.112H79.6909V16.592H85.9069C86.4829 16.592 86.9149 16.744 87.2029 17.048C87.4909 17.336 87.6349 17.752 87.6349 18.296C87.6349 18.856 87.4909 19.28 87.2029 19.568C86.9149 19.856 86.4829 20 85.9069 20H77.7709Z"
              fill="white"/>
        <path d="M92.9691 20.216C92.3291 20.216 91.8331 20.04 91.4811 19.688C91.1451 19.336 90.9771 18.84 90.9771 18.2V4.88C90.9771 4.224 91.1611 3.728 91.5291 3.392C91.8971 3.04 92.4171 2.864 93.0891 2.864C93.6491 2.864 94.0891 2.976 94.4091 3.2C94.7451 3.408 95.0491 3.76 95.3211 4.256L100.481 13.52H99.6411L104.777 4.256C105.065 3.76 105.369 3.408 105.689 3.2C106.025 2.976 106.473 2.864 107.033 2.864C107.673 2.864 108.161 3.04 108.497 3.392C108.849 3.728 109.025 4.224 109.025 4.88V18.2C109.025 18.84 108.857 19.336 108.521 19.688C108.185 20.04 107.689 20.216 107.033 20.216C106.393 20.216 105.897 20.04 105.545 19.688C105.209 19.336 105.041 18.84 105.041 18.2V9.944H105.545L101.681 16.664C101.457 17.016 101.217 17.28 100.961 17.456C100.721 17.632 100.393 17.72 99.9771 17.72C99.5771 17.72 99.2491 17.632 98.9931 17.456C98.7371 17.28 98.5051 17.016 98.2971 16.664L94.4091 9.92H94.9611V18.2C94.9611 18.84 94.7931 19.336 94.4571 19.688C94.1211 20.04 93.6251 20.216 92.9691 20.216Z"
              fill="white"/>
        <path d="M121.02 20.264C119.308 20.264 117.804 19.904 116.508 19.184C115.212 18.448 114.204 17.424 113.484 16.112C112.78 14.8 112.428 13.272 112.428 11.528C112.428 10.216 112.628 9.024 113.028 7.952C113.444 6.88 114.028 5.96 114.78 5.192C115.548 4.424 116.46 3.84 117.516 3.44C118.572 3.024 119.74 2.816 121.02 2.816C122.732 2.816 124.228 3.176 125.508 3.896C126.804 4.616 127.812 5.632 128.532 6.944C129.252 8.24 129.612 9.768 129.612 11.528C129.612 12.84 129.404 14.032 128.988 15.104C128.588 16.176 128.004 17.104 127.236 17.888C126.484 18.656 125.58 19.248 124.524 19.664C123.468 20.064 122.3 20.264 121.02 20.264ZM121.02 16.568C121.868 16.568 122.588 16.368 123.18 15.968C123.772 15.568 124.228 14.992 124.548 14.24C124.868 13.488 125.028 12.584 125.028 11.528C125.028 9.944 124.676 8.712 123.972 7.832C123.268 6.952 122.284 6.512 121.02 6.512C120.188 6.512 119.468 6.712 118.86 7.112C118.268 7.496 117.812 8.064 117.492 8.816C117.172 9.552 117.012 10.456 117.012 11.528C117.012 13.112 117.364 14.352 118.068 15.248C118.772 16.128 119.756 16.568 121.02 16.568Z"
              fill="white"/>
        <path d="M135.147 20.216C134.443 20.216 133.899 20.024 133.515 19.64C133.131 19.24 132.939 18.688 132.939 17.984V5.312C132.939 4.592 133.131 4.04 133.515 3.656C133.915 3.272 134.467 3.08 135.171 3.08H141.075C142.995 3.08 144.475 3.552 145.515 4.496C146.571 5.424 147.099 6.72 147.099 8.384C147.099 9.456 146.859 10.392 146.379 11.192C145.915 11.976 145.235 12.584 144.339 13.016C143.459 13.432 142.371 13.64 141.075 13.64L141.267 13.208H142.419C143.107 13.208 143.715 13.376 144.243 13.712C144.771 14.032 145.211 14.528 145.563 15.2L146.763 17.36C147.019 17.824 147.139 18.28 147.123 18.728C147.107 19.16 146.931 19.52 146.595 19.808C146.275 20.08 145.803 20.216 145.179 20.216C144.555 20.216 144.043 20.088 143.643 19.832C143.259 19.576 142.915 19.176 142.611 18.632L140.427 14.624C140.235 14.272 139.987 14.032 139.683 13.904C139.395 13.76 139.059 13.688 138.675 13.688H137.355V17.984C137.355 18.688 137.171 19.24 136.803 19.64C136.435 20.024 135.883 20.216 135.147 20.216ZM137.355 10.568H140.283C141.131 10.568 141.779 10.4 142.227 10.064C142.675 9.728 142.899 9.208 142.899 8.504C142.899 7.832 142.675 7.328 142.227 6.992C141.779 6.64 141.131 6.464 140.283 6.464H137.355V10.568Z"
              fill="white"/>
        <path d="M156.586 20.216C155.882 20.216 155.338 20.024 154.954 19.64C154.57 19.24 154.378 18.672 154.378 17.936V11.36L155.29 13.784L149.77 5.84C149.498 5.456 149.378 5.032 149.41 4.568C149.458 4.088 149.65 3.688 149.986 3.368C150.338 3.032 150.834 2.864 151.474 2.864C151.922 2.864 152.33 2.976 152.698 3.2C153.066 3.408 153.41 3.768 153.73 4.28L157.09 9.224H156.226L159.586 4.256C159.922 3.744 160.266 3.384 160.618 3.176C160.97 2.968 161.386 2.864 161.866 2.864C162.474 2.864 162.946 3.016 163.282 3.32C163.618 3.624 163.794 4.008 163.81 4.472C163.842 4.936 163.698 5.408 163.378 5.888L157.906 13.784L158.794 11.36V17.936C158.794 19.456 158.058 20.216 156.586 20.216Z"
              fill="white"/>
        <path d="M104.104 40.584C103.224 40.584 102.4 40.52 101.632 40.392C100.864 40.28 100.2 40.112 99.64 39.888C99.176 39.728 98.848 39.496 98.656 39.192C98.464 38.888 98.376 38.568 98.392 38.232C98.408 37.896 98.496 37.592 98.656 37.32C98.832 37.048 99.064 36.848 99.352 36.72C99.64 36.608 99.96 36.616 100.312 36.744C101.016 37.032 101.656 37.216 102.232 37.296C102.808 37.392 103.296 37.44 103.696 37.44C104.672 37.44 105.4 37.232 105.88 36.816C106.376 36.416 106.624 35.784 106.624 34.92V33.408H106.816C106.576 34.08 106.088 34.632 105.352 35.064C104.616 35.48 103.816 35.688 102.952 35.688C101.896 35.688 100.976 35.448 100.192 34.968C99.408 34.472 98.792 33.784 98.344 32.904C97.912 32.024 97.696 30.992 97.696 29.808C97.696 28.912 97.824 28.104 98.08 27.384C98.336 26.664 98.688 26.048 99.136 25.536C99.6 25.024 100.152 24.632 100.792 24.36C101.448 24.072 102.168 23.928 102.952 23.928C103.848 23.928 104.648 24.136 105.352 24.552C106.072 24.968 106.552 25.512 106.792 26.184L106.552 27.168V26.112C106.552 25.424 106.736 24.896 107.104 24.528C107.488 24.16 108.016 23.976 108.688 23.976C109.36 23.976 109.872 24.16 110.224 24.528C110.592 24.896 110.776 25.424 110.776 26.112V34.416C110.776 36.464 110.2 38 109.048 39.024C107.896 40.064 106.248 40.584 104.104 40.584ZM104.272 32.544C104.752 32.544 105.16 32.44 105.496 32.232C105.832 32.008 106.096 31.696 106.288 31.296C106.48 30.88 106.576 30.384 106.576 29.808C106.576 28.944 106.368 28.272 105.952 27.792C105.536 27.312 104.976 27.072 104.272 27.072C103.824 27.072 103.424 27.184 103.072 27.408C102.72 27.616 102.448 27.928 102.256 28.344C102.08 28.744 101.992 29.232 101.992 29.808C101.992 30.672 102.2 31.344 102.616 31.824C103.032 32.304 103.584 32.544 104.272 32.544Z"
              fill="white"/>
        <path d="M118.095 36.264C117.183 36.264 116.375 36.096 115.671 35.76C114.983 35.424 114.439 34.968 114.039 34.392C113.655 33.8 113.463 33.128 113.463 32.376C113.463 31.512 113.687 30.832 114.135 30.336C114.583 29.84 115.303 29.488 116.295 29.28C117.287 29.056 118.607 28.944 120.255 28.944H121.575V30.96H120.255C119.631 30.96 119.111 31.008 118.695 31.104C118.295 31.184 117.999 31.32 117.807 31.512C117.615 31.688 117.519 31.92 117.519 32.208C117.519 32.576 117.647 32.88 117.903 33.12C118.175 33.36 118.559 33.48 119.055 33.48C119.455 33.48 119.807 33.392 120.111 33.216C120.431 33.04 120.687 32.8 120.879 32.496C121.071 32.176 121.167 31.808 121.167 31.392V28.608C121.167 28.032 121.015 27.624 120.711 27.384C120.423 27.144 119.919 27.024 119.199 27.024C118.815 27.024 118.383 27.072 117.903 27.168C117.423 27.248 116.887 27.4 116.295 27.624C115.863 27.784 115.495 27.808 115.191 27.696C114.887 27.584 114.647 27.392 114.471 27.12C114.311 26.848 114.231 26.552 114.231 26.232C114.247 25.912 114.351 25.608 114.543 25.32C114.751 25.032 115.063 24.808 115.479 24.648C116.247 24.36 116.951 24.168 117.591 24.072C118.247 23.976 118.847 23.928 119.391 23.928C120.703 23.928 121.783 24.12 122.631 24.504C123.495 24.872 124.135 25.448 124.551 26.232C124.983 27 125.199 27.992 125.199 29.208V34.056C125.199 34.76 125.031 35.296 124.695 35.664C124.359 36.032 123.871 36.216 123.231 36.216C122.575 36.216 122.071 36.032 121.719 35.664C121.383 35.296 121.215 34.76 121.215 34.056V33.432L121.359 33.768C121.279 34.28 121.095 34.72 120.807 35.088C120.519 35.456 120.143 35.744 119.679 35.952C119.215 36.16 118.687 36.264 118.095 36.264Z"
              fill="white"/>
        <path d="M130.512 36.216C129.84 36.216 129.32 36.032 128.952 35.664C128.584 35.296 128.4 34.76 128.4 34.056V26.112C128.4 25.424 128.576 24.896 128.928 24.528C129.296 24.16 129.816 23.976 130.488 23.976C131.16 23.976 131.672 24.16 132.024 24.528C132.376 24.896 132.552 25.424 132.552 26.112V27.432L132.288 26.256C132.624 25.552 133.12 24.992 133.776 24.576C134.448 24.144 135.24 23.928 136.152 23.928C137.016 23.928 137.752 24.136 138.36 24.552C138.984 24.968 139.432 25.6 139.704 26.448H139.368C139.736 25.664 140.288 25.048 141.024 24.6C141.76 24.152 142.576 23.928 143.472 23.928C144.4 23.928 145.16 24.112 145.752 24.48C146.344 24.832 146.784 25.392 147.072 26.16C147.376 26.912 147.528 27.864 147.528 29.016V34.056C147.528 34.76 147.336 35.296 146.952 35.664C146.584 36.032 146.056 36.216 145.368 36.216C144.696 36.216 144.176 36.032 143.808 35.664C143.44 35.296 143.256 34.76 143.256 34.056V29.136C143.256 28.448 143.152 27.952 142.944 27.648C142.736 27.344 142.392 27.192 141.912 27.192C141.32 27.192 140.864 27.4 140.544 27.816C140.24 28.232 140.088 28.824 140.088 29.592V34.056C140.088 34.76 139.904 35.296 139.536 35.664C139.168 36.032 138.64 36.216 137.952 36.216C137.264 36.216 136.736 36.032 136.368 35.664C136 35.296 135.816 34.76 135.816 34.056V29.136C135.816 28.448 135.712 27.952 135.504 27.648C135.296 27.344 134.952 27.192 134.472 27.192C133.896 27.192 133.448 27.4 133.128 27.816C132.824 28.232 132.672 28.824 132.672 29.592V34.056C132.672 35.496 131.952 36.216 130.512 36.216Z"
              fill="white"/>
        <path d="M157.16 36.264C155.72 36.264 154.472 36.016 153.416 35.52C152.376 35.008 151.576 34.288 151.016 33.36C150.456 32.432 150.176 31.336 150.176 30.072C150.176 28.856 150.44 27.792 150.968 26.88C151.512 25.952 152.248 25.232 153.176 24.72C154.12 24.192 155.192 23.928 156.392 23.928C157.272 23.928 158.072 24.072 158.792 24.36C159.512 24.632 160.128 25.04 160.64 25.584C161.152 26.112 161.536 26.752 161.792 27.504C162.064 28.256 162.2 29.096 162.2 30.024C162.2 30.344 162.112 30.584 161.936 30.744C161.76 30.888 161.48 30.96 161.096 30.96H153.752V28.944H159.08L158.696 29.256C158.696 28.664 158.616 28.184 158.456 27.816C158.296 27.448 158.056 27.168 157.736 26.976C157.432 26.784 157.048 26.688 156.584 26.688C156.088 26.688 155.656 26.808 155.288 27.048C154.936 27.272 154.664 27.608 154.472 28.056C154.28 28.504 154.184 29.064 154.184 29.736V29.952C154.184 31.088 154.432 31.904 154.928 32.4C155.44 32.88 156.224 33.12 157.28 33.12C157.632 33.12 158.032 33.08 158.48 33C158.944 32.904 159.384 32.776 159.8 32.616C160.216 32.456 160.576 32.432 160.88 32.544C161.184 32.64 161.416 32.816 161.576 33.072C161.752 33.312 161.848 33.592 161.864 33.912C161.88 34.216 161.808 34.52 161.648 34.824C161.488 35.112 161.224 35.336 160.856 35.496C160.296 35.752 159.696 35.944 159.056 36.072C158.432 36.2 157.8 36.264 157.16 36.264Z"
              fill="white"/>
    </g>
    <defs>
        <filter id="filter0_d_705_494" x="0" y="0" width="164.814" height="43.0004" filterUnits="userSpaceOnUse"
                color-interpolation-filters="sRGB">
            <feFlood flood-opacity="0" result="BackgroundImageFix"/>
            <feColorMatrix in="SourceAlpha" type="matrix" values="0 0 0 0 0 0 0 0 0 0 0 0 0 0 0 0 0 0 127 0"
                           result="hardAlpha"/>
            <feOffset dy="1"/>
            <feGaussianBlur stdDeviation="0.5"/>
            <feComposite in2="hardAlpha" operator="out"/>
            <feColorMatrix type="matrix" values="0 0 0 0 0 0 0 0 0 0 0 0 0 0 0 0 0 0 0.35 0"/>
            <feBlend mode="normal" in2="BackgroundImageFix" result="effect1_dropShadow_705_494"/>
            <feBlend mode="normal" in="SourceGraphic" in2="effect1_dropShadow_705_494" result="shape"/>
        </filter>
    </defs>
</svg>
