<svg width="98" height="98" viewBox="0 0 98 98" fill="none" xmlns="http://www.w3.org/2000/svg">
    <path fill-rule="evenodd" clip-rule="evenodd"
          d="M46.3277 0.571831C47.8525 -0.19061 49.6475 -0.19061 51.1723 0.571831L94.5057 22.2383C96.3408 23.1558 97.5 25.0314 97.5 27.083C97.5 29.1347 96.3408 31.0103 94.5057 31.9278L83.2395 37.561L94.7391 44.0294C96.486 45.012 97.5471 46.8786 97.4984 48.8822C97.4496 50.8858 96.2986 52.6987 94.5057 53.5952L83.2401 59.2279L94.7391 65.6959C96.486 66.6784 97.5471 68.545 97.4984 70.5486C97.4496 72.5522 96.2986 74.3651 94.5057 75.2616L51.1723 96.928C49.6475 97.6907 47.8525 97.6907 46.3277 96.928L2.99428 75.2616C1.20163 74.3651 0.0504288 72.5522 0.00162462 70.5486C-0.0472337 68.545 1.01427 66.6784 2.76109 65.6959L14.2598 59.2279L2.99428 53.5952C1.20163 52.6987 0.0504288 50.8858 0.00162462 48.8822C-0.0472337 46.8786 1.01427 45.012 2.76109 44.0294L14.2607 37.561L2.99428 31.9278C1.15917 31.0103 0 29.1347 0 27.083C0 25.0314 1.15917 23.1558 2.99428 22.2383L46.3277 0.571831ZM25.9583 65.0773L16.9657 70.1353L48.75 86.0271L80.5345 70.1353L71.5417 65.0773L51.1723 75.2616C49.6475 76.0242 47.8525 76.0242 46.3277 75.2616L25.9583 65.0773ZM51.1723 53.5941L71.5406 43.4103L80.5345 48.4689L48.75 64.3607L16.9657 48.4689L25.9592 43.4103L46.3277 53.5941C47.8525 54.3567 49.6475 54.3567 51.1723 53.5941Z"
          fill="#23272F"/>
</svg>
