<svg width="26" height="26" viewBox="0 0 26 26" fill="none" xmlns="http://www.w3.org/2000/svg">
<g clip-path="url(#clip0_603_645)">
<path d="M23.5625 0H10.5625C9.21631 0 8.125 1.09131 8.125 2.4375V15.4375C8.125 16.7837 9.21631 17.875 10.5625 17.875H23.5625C24.9087 17.875 26 16.7837 26 15.4375V2.4375C26 1.09131 24.9087 0 23.5625 0Z" fill="white"/>
<path d="M17.0625 10.5625C17.96 10.5625 18.6875 9.83496 18.6875 8.9375C18.6875 8.04004 17.96 7.3125 17.0625 7.3125C16.165 7.3125 15.4375 8.04004 15.4375 8.9375C15.4375 9.83496 16.165 10.5625 17.0625 10.5625Z" fill="#2D3142"/>
<path d="M12.1875 5.6875C13.085 5.6875 13.8125 4.95996 13.8125 4.0625C13.8125 3.16504 13.085 2.4375 12.1875 2.4375C11.29 2.4375 10.5625 3.16504 10.5625 4.0625C10.5625 4.95996 11.29 5.6875 12.1875 5.6875Z" fill="#2D3142"/>
<path d="M21.9375 15.4375C22.835 15.4375 23.5625 14.71 23.5625 13.8125C23.5625 12.915 22.835 12.1875 21.9375 12.1875C21.04 12.1875 20.3125 12.915 20.3125 13.8125C20.3125 14.71 21.04 15.4375 21.9375 15.4375Z" fill="#2D3142"/>
<path opacity="0.15" d="M23.5625 0H10.5625C9.21631 0 8.125 1.09131 8.125 2.4375V15.4375C8.125 16.7837 9.21631 17.875 10.5625 17.875H23.5625C24.9087 17.875 26 16.7837 26 15.4375V2.4375C26 1.09131 24.9087 0 23.5625 0Z" fill="white"/>
<path d="M15.4375 8.125H2.4375C1.09131 8.125 0 9.21631 0 10.5625V23.5625C0 24.9087 1.09131 26 2.4375 26H15.4375C16.7837 26 17.875 24.9087 17.875 23.5625V10.5625C17.875 9.21631 16.7837 8.125 15.4375 8.125Z" fill="#81838E"/>
<path d="M8.9375 18.6875C9.83496 18.6875 10.5625 17.96 10.5625 17.0625C10.5625 16.165 9.83496 15.4375 8.9375 15.4375C8.04004 15.4375 7.3125 16.165 7.3125 17.0625C7.3125 17.96 8.04004 18.6875 8.9375 18.6875Z" fill="white"/>
<path d="M13.8125 13.8125C14.71 13.8125 15.4375 13.085 15.4375 12.1875C15.4375 11.29 14.71 10.5625 13.8125 10.5625C12.915 10.5625 12.1875 11.29 12.1875 12.1875C12.1875 13.085 12.915 13.8125 13.8125 13.8125Z" fill="white"/>
<path d="M4.0625 13.8125C4.95996 13.8125 5.6875 13.085 5.6875 12.1875C5.6875 11.29 4.95996 10.5625 4.0625 10.5625C3.16504 10.5625 2.4375 11.29 2.4375 12.1875C2.4375 13.085 3.16504 13.8125 4.0625 13.8125Z" fill="white"/>
<path d="M13.8125 23.5625C14.71 23.5625 15.4375 22.835 15.4375 21.9375C15.4375 21.04 14.71 20.3125 13.8125 20.3125C12.915 20.3125 12.1875 21.04 12.1875 21.9375C12.1875 22.835 12.915 23.5625 13.8125 23.5625Z" fill="white"/>
<path d="M4.0625 23.5625C4.95996 23.5625 5.6875 22.835 5.6875 21.9375C5.6875 21.04 4.95996 20.3125 4.0625 20.3125C3.16504 20.3125 2.4375 21.04 2.4375 21.9375C2.4375 22.835 3.16504 23.5625 4.0625 23.5625Z" fill="white"/>
</g>
<defs>
<clipPath id="clip0_603_645">
<rect width="26" height="26" fill="white"/>
</clipPath>
</defs>
</svg>
