<svg width="26" height="26" viewBox="0 0 26 26" fill="none" xmlns="http://www.w3.org/2000/svg">
<path opacity="0.4" d="M20.7403 11.2169V16.4085C20.7403 16.7459 20.7273 17.0704 20.6884 17.3819C20.3899 20.8862 18.3262 22.6254 14.5234 22.6254H14.0042C13.6798 22.6254 13.3683 22.7811 13.1736 23.0407L11.6161 25.1173C10.9282 26.0388 9.81205 26.0388 9.12417 25.1173L7.56669 23.0407C7.39797 22.82 7.02159 22.6254 6.73605 22.6254H6.21691C2.07664 22.6254 0 21.6 0 16.4085V11.2169C0 7.41409 1.75217 5.35044 5.24349 5.05193C5.55499 5.01299 5.87946 5 6.21691 5H14.5234C18.6637 5 20.7403 7.07664 20.7403 11.2169Z" fill="white"/>
<path d="M10.3706 15.5747C9.64383 15.5747 9.07275 14.9906 9.07275 14.2768C9.07275 13.5629 9.6568 12.9789 10.3706 12.9789C11.0844 12.9789 11.6685 13.5629 11.6685 14.2768C11.6685 14.9906 11.0974 15.5747 10.3706 15.5747Z" fill="white"/>
<path d="M14.9131 15.5747C14.1863 15.5747 13.6152 14.9906 13.6152 14.2768C13.6152 13.5629 14.1993 12.9789 14.9131 12.9789C15.627 12.9789 16.211 13.5629 16.211 14.2768C16.211 14.9906 15.627 15.5747 14.9131 15.5747Z" fill="white"/>
<path d="M5.84037 15.5747C5.11355 15.5747 4.54248 14.9906 4.54248 14.2768C4.54248 13.5629 5.12653 12.9789 5.84037 12.9789C6.55421 12.9789 7.13826 13.5629 7.13826 14.2768C7.13826 14.9906 6.55421 15.5747 5.84037 15.5747Z" fill="white"/>
<path d="M25.9306 6.21691V11.4085C25.9306 15.2243 24.1785 17.2749 20.6871 17.5734C20.7261 17.2619 20.7391 16.9375 20.7391 16.6V11.4085C20.7391 7.2682 18.6624 5.19156 14.5222 5.19156H6.21561C5.87815 5.19156 5.55368 5.20456 5.24219 5.24349C5.5407 1.75217 7.60435 0 11.4072 0H19.7137C23.854 0 25.9306 2.07664 25.9306 6.21691Z" fill="white"/>
</svg>
