<svg width="20" height="29" viewBox="0 0 20 29" fill="none" xmlns="http://www.w3.org/2000/svg">
<path d="M16.3457 12.5H7.3457V26.5L11.8457 23.5L16.3457 26.5V12.5Z" fill="white"/>
<path d="M3.3457 12.5H12.3457V26.5L7.8457 23.5L3.3457 26.5V12.5Z" fill="white"/>
<path d="M14.3457 15H5.3457V29L9.8457 26L14.3457 29V15Z" fill="#81838E"/>
<path d="M5.3457 19.91C5.79037 19.8957 6.23516 19.9343 6.6707 20.025C7.6707 20.46 8.5107 21.525 9.8457 21.525C11.1807 21.525 12.0207 20.485 13.0207 20.025C13.4562 19.9343 13.901 19.8957 14.3457 19.91V15H5.3457V19.91Z" fill="white"/>
<path d="M12.3457 15V27.665L9.8457 26L7.3457 27.665V15H12.3457Z" fill="white"/>
<path d="M7.3457 20.405C9.1707 21.845 10.5257 21.845 12.3457 20.405V15H7.3457V20.405Z" fill="white"/>
<path d="M19.1209 10.25C19.1209 9.195 19.9059 8.03 19.6209 7.08C19.3359 6.13 17.9459 5.62 17.3459 4.8C16.7459 3.98 16.6959 2.56 15.8459 1.955C14.9959 1.35 13.6709 1.745 12.6859 1.455C11.7009 1.165 10.9009 0 9.84593 0C8.79093 0 7.93093 1.12 6.98093 1.43C6.03093 1.74 4.64093 1.36 3.82093 1.93C3.00093 2.5 2.94593 3.93 2.32093 4.775C1.69593 5.62 0.395928 6.07 0.0759277 7.055C-0.244072 8.04 0.550928 9.17 0.550928 10.225C0.550928 11.28 -0.234072 12.445 0.0759277 13.395C0.385928 14.345 1.74593 14.88 2.34593 15.7C2.94593 16.52 2.99593 17.94 3.84593 18.545C4.69593 19.15 6.02093 18.755 7.00593 19.045C7.99093 19.335 8.79093 20.5 9.84593 20.5C10.9009 20.5 11.7609 19.38 12.7109 19.07C13.6609 18.76 15.0509 19.14 15.8709 18.57C16.6909 18 16.7459 16.57 17.3709 15.725C17.9959 14.88 19.2959 14.43 19.6159 13.445C19.9359 12.46 19.1209 11.305 19.1209 10.25Z" fill="white"/>
<path d="M9.8457 17.5C13.8498 17.5 17.0957 14.2541 17.0957 10.25C17.0957 6.24594 13.8498 3 9.8457 3C5.84164 3 2.5957 6.24594 2.5957 10.25C2.5957 14.2541 5.84164 17.5 9.8457 17.5Z" fill="#81838E"/>
<path d="M10.5309 6.49997L11.2909 7.81497C11.346 7.91324 11.4221 7.9982 11.5137 8.06385C11.6052 8.12951 11.7101 8.17427 11.8209 8.19497L13.3459 8.49997C13.4823 8.52355 13.6097 8.58369 13.7146 8.67399C13.8195 8.76429 13.898 8.88137 13.9416 9.01273C13.9852 9.1441 13.9924 9.28484 13.9623 9.41996C13.9322 9.55507 13.8661 9.6795 13.7709 9.77997L12.7209 10.89C12.6445 10.9705 12.5869 11.067 12.5523 11.1725C12.5177 11.278 12.507 11.3898 12.5209 11.5L12.7009 13C12.7145 13.1376 12.6915 13.2763 12.6342 13.4022C12.577 13.528 12.4875 13.6365 12.3749 13.7167C12.2622 13.7969 12.1304 13.8459 11.9927 13.8587C11.8551 13.8716 11.7164 13.8479 11.5909 13.79L10.1859 13.155C10.0822 13.108 9.96969 13.0837 9.85588 13.0837C9.74206 13.0837 9.62956 13.108 9.52588 13.155L8.12088 13.79C7.99493 13.8503 7.85515 13.876 7.71596 13.8643C7.57678 13.8527 7.44323 13.8041 7.3291 13.7236C7.21496 13.6431 7.12437 13.5336 7.06668 13.4064C7.00898 13.2792 6.98626 13.1389 7.00088 13L7.18088 11.5C7.19476 11.3898 7.18403 11.278 7.14944 11.1725C7.11485 11.067 7.05728 10.9705 6.98088 10.89L5.93088 9.77997C5.83578 9.68016 5.76942 9.55651 5.73881 9.42209C5.70821 9.28767 5.7145 9.14747 5.75702 9.01633C5.79954 8.88519 5.8767 8.76798 5.98036 8.67708C6.08401 8.58619 6.2103 8.525 6.34588 8.49997L7.84588 8.20497C7.95664 8.18427 8.06151 8.13951 8.15309 8.07385C8.24467 8.0082 8.32072 7.92324 8.37588 7.82497L9.16088 6.49997C9.23111 6.38074 9.33124 6.28191 9.45138 6.21324C9.57152 6.14458 9.7075 6.10846 9.84588 6.10846C9.98425 6.10846 10.1202 6.14458 10.2404 6.21324C10.3605 6.28191 10.4606 6.38074 10.5309 6.49997Z" fill="white"/>
</svg>
