<svg width="26" height="26" viewBox="0 0 26 26" fill="none" xmlns="http://www.w3.org/2000/svg">
<path opacity="0.4" d="M13 26C20.1796 26 26 20.1798 26 13C26 5.8203 20.1796 0 13 0C5.82029 0 0 5.8203 0 13C0 20.1798 5.82029 26 13 26Z" fill="white"/>
<path d="M13 6.40894C10.309 6.40894 8.125 8.59294 8.125 11.2839C8.125 13.9229 10.192 16.0679 12.935 16.1459C12.974 16.1459 13.026 16.1459 13.052 16.1459C13.078 16.1459 13.117 16.1459 13.143 16.1459C13.156 16.1459 13.169 16.1459 13.169 16.1459C15.795 16.0549 17.862 13.9229 17.875 11.2839C17.875 8.59294 15.691 6.40894 13 6.40894Z" fill="white"/>
<path d="M21.815 22.555C19.501 24.687 16.407 26 13.001 26C9.59501 26 6.50101 24.687 4.18701 22.555C4.49901 21.372 5.34401 20.293 6.57901 19.461C10.128 17.095 15.9 17.095 19.423 19.461C20.671 20.293 21.503 21.372 21.815 22.555Z" fill="white"/>
</svg>
