<svg width="101" height="88" viewBox="0 0 101 88" fill="none" xmlns="http://www.w3.org/2000/svg">
<path d="M30.94 31.5503L49.9127 20.5964C50.146 20.4616 50.4107 20.3907 50.6802 20.3907C50.9497 20.3907 51.2144 20.4616 51.4478 20.5964L70.4205 31.5503C70.6538 31.6851 70.8475 31.8789 70.9823 32.1122C71.117 32.3455 71.188 32.6102 71.1881 32.8796V54.7874C71.1881 55.3355 70.8951 55.8421 70.4205 56.1167L51.4478 67.0706C51.2144 67.2054 50.9497 67.2764 50.6802 67.2764C50.4107 67.2764 50.146 67.2054 49.9127 67.0706L30.94 56.1167C30.7066 55.982 30.5129 55.7882 30.3781 55.5549C30.2434 55.3215 30.1724 55.0569 30.1724 54.7874V32.8792C30.1728 32.3308 30.4653 31.8249 30.94 31.5503Z" fill="#8080F2"/>
<path d="M99.8666 42.0382L77.1736 2.55884C76.3494 1.1315 74.8267 0.0783691 73.1783 0.0783691H27.7919C26.1434 0.0783691 24.62 1.1315 23.7958 2.55884L1.10315 41.9511C0.27893 43.3788 0.27893 45.1808 1.10315 46.6085L23.7958 85.7645C24.62 87.1918 26.1434 87.9215 27.7919 87.9215H73.1779C74.8263 87.9215 76.3494 87.2137 77.1732 85.786L99.8662 46.5664C100.691 45.1394 100.692 43.4656 99.8666 42.0382ZM81.0756 61.0226C81.0756 61.6027 80.7264 62.1398 80.2232 62.4305L51.3173 79.1074C51.0684 79.25 50.7866 79.3251 50.4997 79.3251C50.2129 79.3251 49.931 79.25 49.6822 79.1074L20.754 62.4305C20.2512 62.1398 19.8993 61.6031 19.8993 61.0222V27.6675C19.8993 27.0866 20.2462 26.5503 20.7493 26.2597L49.6536 9.58229C49.9024 9.43946 50.1842 9.3643 50.471 9.3643C50.7579 9.3643 51.0397 9.43946 51.2884 9.58229L80.2182 26.2597C80.7217 26.5503 81.0756 27.0866 81.0756 27.6675V61.0226Z" fill="#4B32C3"/>
</svg>
