<svg width="101" height="93" viewBox="0 0 101 93" fill="none" xmlns="http://www.w3.org/2000/svg">
<path d="M50.3807 92.3557L68.7936 35.687H31.9674L50.3807 92.3557Z" fill="#E24329"/>
<path d="M50.3807 92.3557L31.9674 35.687L6.16257 35.6865L50.3807 92.3557Z" fill="#FC6D26"/>
<path d="M6.16257 35.6865L0.567229 52.908C0.318444 53.6736 0.31841 54.4983 0.567131 55.2639C0.815853 56.0295 1.30056 56.6968 1.95179 57.17L50.3807 92.3557L6.16257 35.6865Z" fill="#FCA326"/>
<path d="M6.16257 35.6865L31.9674 35.687L20.878 1.55537C20.3073 -0.200943 17.8227 -0.200552 17.2524 1.55537L6.16257 35.6865Z" fill="#E24329"/>
<path d="M50.3807 92.3557L68.7936 35.687L94.5989 35.6865L50.3807 92.3557Z" fill="#FC6D26"/>
<path d="M94.5989 35.6865L100.194 52.908C100.443 53.6736 100.443 54.4984 100.194 55.264C99.9452 56.0296 99.4604 56.6968 98.8091 57.17L50.3807 92.3557L94.5989 35.6865Z" fill="#FCA326"/>
<path d="M94.5989 35.6865L68.7936 35.687L79.8834 1.55537C80.4542 -0.200943 82.9387 -0.200552 83.509 1.55537L94.5989 35.6865Z" fill="#E24329"/>
</svg>
