<svg width="101" height="39" viewBox="0 0 101 39" fill="none" xmlns="http://www.w3.org/2000/svg">
<path d="M7.82283 12.1171C7.62808 12.1171 7.57939 12.0197 7.67676 11.8737L8.69922 10.5591C8.7966 10.413 9.04004 10.3156 9.23479 10.3156H26.6166C26.8113 10.3156 26.86 10.4617 26.7626 10.6078L25.9349 11.8737C25.8376 12.0197 25.5941 12.1658 25.448 12.1658L7.82283 12.1171ZM0.470877 16.5965C0.276123 16.5965 0.227435 16.4991 0.324811 16.353L1.34727 15.0384C1.44465 14.8924 1.68809 14.795 1.88284 14.795H24.0848C24.2795 14.795 24.3769 14.941 24.3282 15.0871L23.9387 16.2556C23.89 16.4504 23.6953 16.5478 23.5005 16.5478L0.470877 16.5965ZM12.2535 21.0758C12.0587 21.0758 12.01 20.9297 12.1074 20.7837L12.7891 19.5664C12.8864 19.4204 13.0812 19.2743 13.2759 19.2743H23.0136C23.2084 19.2743 23.3058 19.4204 23.3058 19.6151L23.2084 20.7837C23.2084 20.9784 23.0136 21.1245 22.8676 21.1245L12.2535 21.0758ZM62.7921 11.2407C59.7247 12.0197 57.6311 12.604 54.6124 13.383C53.8821 13.5778 53.8334 13.6265 53.2004 12.8961C52.4701 12.0684 51.9346 11.5329 50.9121 11.046C47.8447 9.53663 44.8747 9.97482 42.0995 11.7763C38.7887 13.9186 37.0846 17.0833 37.1333 21.0271C37.182 24.9222 39.8598 28.1356 43.7062 28.6712C47.017 29.1094 49.7923 27.9409 51.9832 25.4577C52.4214 24.9222 52.8109 24.3379 53.2978 23.6563H43.901C42.8785 23.6563 42.6351 23.0233 42.9759 22.1956C43.6088 20.6863 44.7774 18.1545 45.459 16.8886C45.6051 16.5964 45.9459 16.1096 46.6762 16.1096H64.3988C64.3014 17.4242 64.3014 18.7387 64.1067 20.0533C63.5711 23.5589 62.2565 26.7723 60.1142 29.5963C56.6086 34.2217 52.0319 37.0943 46.238 37.8733C41.4665 38.5062 37.0359 37.5812 33.1408 34.6599C29.5379 31.9333 27.493 28.3304 26.9574 23.851C26.3244 18.544 27.8825 13.7725 31.0959 9.58532C34.5528 5.05729 39.1295 2.18468 44.7287 1.16222C49.3054 0.334516 53.6873 0.870089 57.6311 3.54795C60.2116 5.25205 62.0617 7.58909 63.279 10.413C63.5711 10.8512 63.3763 11.0947 62.7921 11.2407Z" fill="#00ACD7"/>
<path d="M78.9079 38.1654C74.4772 38.068 70.4361 36.8021 67.0279 33.8808C64.1553 31.3977 62.3538 28.233 61.7696 24.484C60.8932 18.9822 62.4025 14.1133 65.7133 9.78006C69.2676 5.10597 73.5522 2.67155 79.3461 1.64909C84.3123 0.772698 88.9864 1.25958 93.2223 4.1322C97.0687 6.76137 99.4544 10.3156 100.087 14.9897C100.915 21.5627 99.0162 26.9184 94.4882 31.4951C91.2747 34.7572 87.331 36.8021 82.803 37.7272C81.4884 37.9706 80.1738 38.0193 78.9079 38.1654ZM90.4957 18.4953C90.447 17.8623 90.447 17.3754 90.3497 16.8886C89.4733 12.0684 85.0426 9.34186 80.4172 10.413C75.8892 11.4355 72.9679 14.3081 71.8968 18.8848C71.0204 22.6825 72.8705 26.5289 76.3761 28.0869C79.054 29.2554 81.7318 29.1094 84.3123 27.7948C88.1587 25.7985 90.2523 22.6825 90.4957 18.4953Z" fill="#00ACD7"/>
</svg>
