<svg width="81" height="81" viewBox="0 0 81 81" fill="none" xmlns="http://www.w3.org/2000/svg">
    <path d="M0.75 0.75H80.75V80.75H0.75V0.75ZM74.1967 61.67C73.6133 58.02 71.2367 54.9533 64.1867 52.0933C61.7333 50.9433 59.0067 50.1433 58.1967 48.2933C57.8933 47.1933 57.8467 46.5933 58.0433 45.9433C58.5433 43.79 61.0933 43.1433 63.0933 43.7433C64.3933 44.1433 65.5933 45.1433 66.3467 46.7433C69.7933 44.49 69.7933 44.49 72.1967 42.9933C71.2967 41.5933 70.85 40.99 70.2433 40.3933C68.1433 38.0433 65.3467 36.8433 60.7967 36.9467L58.4467 37.2433C56.1933 37.7933 54.0467 38.9933 52.7467 40.5933C48.9467 44.8967 50.0433 52.3967 54.6433 55.4967C59.1933 58.8967 65.8467 59.6433 66.6967 62.8467C67.4967 66.7467 63.7967 67.9967 60.1433 67.5467C57.44 66.9467 55.9433 65.5933 54.2933 63.0933L48.1933 66.5967C48.8933 68.1967 49.6933 68.8933 50.8933 70.2933C56.6933 76.1467 71.1933 75.8467 73.7967 66.9467C73.8933 66.6467 74.5967 64.5967 74.0433 61.4467L74.1967 61.67ZM44.2533 37.52H36.76C36.76 43.98 36.73 50.4 36.73 56.87C36.73 60.9767 36.94 64.7467 36.27 65.9067C35.17 68.2033 32.3367 67.91 31.05 67.5067C29.73 66.8533 29.06 65.9533 28.2833 64.6567C28.0733 64.3067 27.9167 64.0033 27.86 64.0033L21.7767 67.7533C22.7933 69.8533 24.2767 71.66 26.19 72.81C29.04 74.51 32.87 75.06 36.88 74.16C39.49 73.4067 41.74 71.8567 42.9167 69.4567C44.6167 66.3567 44.2567 62.5567 44.24 58.3033C44.28 51.4567 44.24 44.6067 44.24 37.7067L44.2533 37.52Z"
          fill="#F7DF1E"/>
</svg>
