<svg width="97" height="100" viewBox="0 0 97 100" fill="none" xmlns="http://www.w3.org/2000/svg">
<path d="M96.6185 23.004C96.6543 23.1365 96.6726 23.2732 96.673 23.4104V44.7445C96.673 45.0184 96.6007 45.2873 96.4634 45.5243C96.3262 45.7612 96.1288 45.9577 95.8913 46.094L77.9852 56.4033V76.8371C77.9852 77.3932 77.6896 77.9066 77.2074 78.1866L39.8299 99.7035C39.7444 99.7521 39.6511 99.7832 39.5577 99.8163C39.5227 99.8279 39.4897 99.8493 39.4527 99.859C39.1914 99.9278 38.9168 99.9278 38.6555 99.859C38.6127 99.8474 38.5739 99.824 38.533 99.8085C38.4475 99.7774 38.358 99.7501 38.2764 99.7035L0.906655 78.1866C0.669256 78.0502 0.472002 77.8536 0.334772 77.6167C0.197543 77.3798 0.125188 77.1109 0.125 76.8371V12.8347C0.125 12.6947 0.144444 12.5586 0.179444 12.4264C0.19111 12.3817 0.218332 12.3408 0.233887 12.2961C0.263053 12.2145 0.290275 12.1308 0.333052 12.055C0.362219 12.0045 0.404996 11.9636 0.439995 11.917C0.484717 11.8547 0.525549 11.7906 0.578049 11.7361C0.62277 11.6914 0.681103 11.6584 0.731657 11.6195C0.788045 11.5728 0.8386 11.5222 0.902766 11.4853H0.90471L19.5905 0.726845C19.8271 0.590698 20.0953 0.519043 20.3683 0.519043C20.6413 0.519043 20.9095 0.590698 21.1461 0.726845L39.8319 11.4853H39.8358C39.898 11.5242 39.9505 11.5728 40.0069 11.6175C40.0574 11.6564 40.1138 11.6914 40.1586 11.7342C40.213 11.7906 40.2519 11.8547 40.2985 11.917C40.3316 11.9636 40.3763 12.0045 40.4035 12.055C40.4483 12.1328 40.4735 12.2145 40.5047 12.2961C40.5202 12.3408 40.5474 12.3817 40.5591 12.4283C40.5949 12.5609 40.6132 12.6975 40.6135 12.8347V52.81L56.1844 43.8443V23.4085C56.1844 23.2724 56.2039 23.1343 56.2389 23.004C56.2525 22.9574 56.2777 22.9165 56.2933 22.8718C56.3244 22.7901 56.3516 22.7065 56.3944 22.6307C56.4236 22.5801 56.4664 22.5393 56.4994 22.4926C56.5461 22.4304 56.585 22.3663 56.6394 22.3118C56.6841 22.2671 56.7405 22.234 56.7911 22.1951C56.8494 22.1485 56.9 22.0979 56.9622 22.061H56.9641L75.6519 11.3025C75.8884 11.1662 76.1566 11.0944 76.4297 11.0944C76.7027 11.0944 76.9709 11.1662 77.2074 11.3025L95.8932 22.061C95.9594 22.0999 96.0099 22.1485 96.0682 22.1932C96.1169 22.2321 96.1732 22.2671 96.218 22.3099C96.2724 22.3663 96.3113 22.4304 96.358 22.4926C96.393 22.5393 96.4357 22.5801 96.463 22.6307C96.5077 22.7065 96.533 22.7901 96.5641 22.8718C96.5816 22.9165 96.6068 22.9574 96.6185 23.004ZM93.558 43.8443V26.1034L77.9852 35.0691V52.81L93.56 43.8443H93.558ZM74.8722 75.9369V58.1844L40.6116 77.7413V95.661L74.8722 75.9369ZM3.23995 15.5277V75.9369L37.4966 95.6591V77.7432L19.6003 67.6148L19.5944 67.6109L19.5866 67.607C19.5264 67.572 19.4758 67.5214 19.4194 67.4787C19.3708 67.4398 19.3144 67.4087 19.2717 67.3659L19.2678 67.3601C19.2172 67.3114 19.1822 67.2512 19.1394 67.1967C19.1005 67.1442 19.0539 67.0995 19.0228 67.0451L19.0208 67.0392C18.9858 66.9809 18.9644 66.9109 18.9392 66.8448C18.9139 66.7865 18.8808 66.732 18.8653 66.6698V66.6678C18.8458 66.594 18.8419 66.5162 18.8342 66.4403C18.8264 66.382 18.8108 66.3237 18.8108 66.2654V24.4935L3.23995 15.5297V15.5277ZM20.3702 3.87291L4.80132 12.8347L20.3664 21.7965L35.9333 12.8328L20.3664 3.87291H20.3702ZM37.4986 54.6027V15.5277L21.9258 24.4935V63.5684L37.4986 54.6027ZM76.4297 14.4486L60.8627 23.4104L76.4297 32.3722L91.9947 23.4085L76.4297 14.4486ZM74.8722 35.0691L59.2994 26.1034V43.8443L74.8722 52.81V35.0691ZM39.0522 75.0483L73.2991 55.4991L57.7438 46.5431L23.5105 66.2517L39.0522 75.0483Z" fill="#FF2D20"/>
</svg>
