<svg width="91" height="91" viewBox="0 0 91 91" fill="none" xmlns="http://www.w3.org/2000/svg">
    <g clip-path="url(#clip0_755_1149)">
        <path d="M45.7498 90.7486C70.6022 90.7486 90.7491 70.6017 90.7491 45.7493C90.7491 20.8969 70.6022 0.75 45.7498 0.75C20.8974 0.75 0.750488 20.8969 0.750488 45.7493C0.750488 70.6017 20.8974 90.7486 45.7498 90.7486Z"
              fill="#394CE2"/>
        <path d="M90.5751 49.7125L56.6595 15.7969L45.7509 6.90381L34.8417 15.7969V21.0421L36.3939 22.1402L31.9234 74.0231H26.2998V80.1422L35.8017 89.644C39.0023 90.3665 42.3316 90.7499 45.7505 90.7499C69.2679 90.7501 88.5682 72.7089 90.5751 49.7125Z"
              fill="#1B2DDD"/>
        <path d="M54.7894 18.4504H36.712L31.8657 74.6955H59.6358L54.7894 18.4504Z" fill="white"/>
        <path d="M59.6357 74.6955L54.7892 18.4504H45.75V74.6955H59.6357Z" fill="#E1E1E3"/>
        <path d="M45.751 6.90356L34.8418 15.7969V21.042H56.6594V15.7969L45.751 6.90356Z" fill="#FFA91F"/>
        <path d="M56.6593 21.042V15.7969L45.7509 6.90356L45.75 6.90427V21.042H56.6593Z" fill="#FF8800"/>
        <path d="M35.1333 36.7698L33.4438 56.3762H58.0569L56.3675 36.7698H35.1333Z" fill="#FF3C62"/>
        <path d="M48.7946 28.6517C48.7946 26.9775 47.4247 25.6077 45.7505 25.6077C44.0764 25.6077 42.7065 26.9775 42.7065 28.6517V32.3046H48.7946V28.6517Z"
              fill="#3C3B41"/>
        <path d="M48.7945 28.6517C48.7945 26.9775 47.4247 25.6077 45.7505 25.6077H45.75V32.3044H48.7945V28.6517Z"
              fill="#29292B"/>
        <path d="M65.2008 74.0237H26.2993V80.1437H65.2008V74.0237Z" fill="#FFA91F"/>
        <path d="M65.2007 74.0237H45.75V80.1437H65.2007V74.0237Z" fill="#FF8800"/>
        <path d="M56.3677 36.7698H45.75V56.3762H58.0571L56.3677 36.7698Z" fill="#FF0335"/>
    </g>
    <defs>
        <clipPath id="clip0_755_1149">
            <rect width="90" height="90" fill="white" transform="translate(0.75 0.75)"/>
        </clipPath>
    </defs>
</svg>
