<svg width="100" height="67" viewBox="0 0 100 67" fill="none" xmlns="http://www.w3.org/2000/svg">
<path d="M56.1008 66.6667H93.2752C94.4558 66.6668 95.6158 66.3588 96.6383 65.7737C97.6608 65.1885 98.5098 64.3468 99.1 63.3332C99.6902 62.3197 100 61.1698 100 59.9997C99.9995 58.8295 99.688 57.68 99.097 56.667L74.1318 13.8098C73.5418 12.7965 72.693 11.955 71.6707 11.3699C70.6483 10.7848 69.4887 10.4768 68.3082 10.4768C67.1277 10.4768 65.968 10.7848 64.9457 11.3699C63.9233 11.955 63.0745 12.7965 62.4843 13.8098L56.1008 24.7755L43.6202 3.33255C43.0295 2.31928 42.1803 1.47788 41.1577 0.892933C40.1352 0.30795 38.9753 0 37.7945 0C36.6138 0 35.454 0.30795 34.4313 0.892933C33.4088 1.4779 32.5595 2.31928 31.969 3.33255L0.902951 56.667C0.311951 57.68 0.000500603 58.8295 6.03104e-07 59.9997C-0.000499397 61.1698 0.309901 62.3197 0.900017 63.3332C1.49013 64.3468 2.33915 65.1885 3.36167 65.7737C4.38418 66.3588 5.54415 66.6668 6.72488 66.6667H30.0598C39.3053 66.6667 46.1235 62.6417 50.8152 54.789L68.3063 24.7755L86.6163 56.2037H62.2055L56.1008 66.6667ZM29.6793 56.193L13.3946 56.1893L37.8055 14.2874L49.9855 35.2383L41.8305 49.2417C38.7148 54.3367 35.1752 56.193 29.6793 56.193Z" fill="#00DC82"/>
</svg>
