<svg width="101" height="100" viewBox="0 0 101 100" fill="none" xmlns="http://www.w3.org/2000/svg">
<path d="M74.5707 19.0476H79.3326C80.6659 19.0476 81.7135 20.0952 81.7135 21.4286C81.7135 22.7619 80.6659 23.8095 79.3326 23.8095H74.5707C73.2373 23.8095 72.1897 22.7619 72.1897 21.4286C72.1897 20.0952 73.2373 19.0476 74.5707 19.0476Z" fill="#56B3B4"/>
<path d="M3.14206 95.2383H26.9516C28.2849 95.2383 29.3325 96.2859 29.3325 97.6192C29.3325 98.9526 28.2849 100 26.9516 100H3.14206C1.80873 100 0.761108 98.9526 0.761108 97.6192C0.761108 96.2859 1.80873 95.2383 3.14206 95.2383Z" fill="#EA5E5E"/>
<path d="M60.285 57.1431H74.5706C75.9039 57.1431 76.9515 58.1906 76.9515 59.5239C76.9515 60.8572 75.9039 61.9047 74.5706 61.9047H60.285C58.9517 61.9047 57.9041 60.8572 57.9041 59.5239C57.9041 58.1906 58.9517 57.1431 60.285 57.1431Z" fill="#BF85BF"/>
<path d="M31.7135 57.1431H50.7611C52.0945 57.1431 53.1421 58.1906 53.1421 59.5239C53.1421 60.8572 52.0945 61.9047 50.7611 61.9047H31.7135C30.3801 61.9047 29.3325 60.8572 29.3325 59.5239C29.3325 58.1906 30.3801 57.1431 31.7135 57.1431Z" fill="#EA5E5E"/>
<path d="M3.14206 57.1431H22.1897C23.523 57.1431 24.5707 58.1906 24.5707 59.5239C24.5707 60.8572 23.523 61.9047 22.1897 61.9047H3.14206C1.80873 61.9047 0.761108 60.8572 0.761108 59.5239C0.761108 58.1906 1.80873 57.1431 3.14206 57.1431Z" fill="#56B3B4"/>
<path d="M3.14206 76.1904H26.9516C28.2849 76.1904 29.3325 77.2381 29.3325 78.5714C29.3325 79.9047 28.2849 80.9524 26.9516 80.9524H3.14206C1.80873 80.9524 0.761108 79.9047 0.761108 78.5714C0.761108 77.2381 1.80873 76.1904 3.14206 76.1904Z" fill="#BF85BF"/>
<path d="M3.14206 38.0952H26.9516C28.2849 38.0952 29.3325 39.1429 29.3325 40.4762C29.3325 41.8096 28.2849 42.8572 26.9516 42.8572H3.14206C1.80873 42.8572 0.761108 41.8096 0.761108 40.4762C0.761108 39.1429 1.80873 38.0952 3.14206 38.0952Z" fill="#BF85BF"/>
<path d="M26.9515 9.52393H74.5705C75.9038 9.52393 76.9514 10.5716 76.9514 11.9049C76.9514 13.2382 75.9038 14.2859 74.5705 14.2859H26.9515C25.6182 14.2859 24.5706 13.2382 24.5706 11.9049C24.5706 10.5716 25.6182 9.52393 26.9515 9.52393Z" fill="#F7BA3E"/>
<path d="M3.14206 9.52393H17.4278C18.7611 9.52393 19.8087 10.5716 19.8087 11.9049C19.8087 13.2382 18.7611 14.2859 17.4278 14.2859H3.14206C1.80873 14.2859 0.761108 13.2382 0.761108 11.9049C0.761108 10.5716 1.80873 9.52393 3.14206 9.52393Z" fill="#EA5E5E"/>
<path d="M22.1897 85.7144H26.9516C28.285 85.7144 29.3326 86.762 29.3326 88.0953C29.3326 89.4287 28.285 90.4763 26.9516 90.4763H22.1897C20.8563 90.4763 19.8087 89.4287 19.8087 88.0953C19.8087 86.762 20.8563 85.7144 22.1897 85.7144Z" fill="#F7BA3E"/>
<path d="M22.1897 28.5715H26.9516C28.285 28.5715 29.3326 29.6191 29.3326 30.9524C29.3326 32.2857 28.285 33.3333 26.9516 33.3333H22.1897C20.8563 33.3333 19.8087 32.2857 19.8087 30.9524C19.8087 29.6191 20.8563 28.5715 22.1897 28.5715Z" fill="#56B3B4"/>
<path d="M3.14206 85.7144H12.6659C13.9992 85.7144 15.0468 86.762 15.0468 88.0953C15.0468 89.4287 13.9992 90.4763 12.6659 90.4763H3.14206C1.80873 90.4763 0.761108 89.4287 0.761108 88.0953C0.761108 86.762 1.80873 85.7144 3.14206 85.7144Z" fill="#56B3B4"/>
<path d="M3.14206 28.5715H12.6659C13.9992 28.5715 15.0468 29.6191 15.0468 30.9524C15.0468 32.2857 13.9992 33.3333 12.6659 33.3333H3.14206C1.80873 33.3333 0.761108 32.2857 0.761108 30.9524C0.761108 29.6191 1.80873 28.5715 3.14206 28.5715Z" fill="#F7BA3E"/>
<path opacity="0.5" d="M65.0469 85.7144H69.8087C71.142 85.7144 72.1896 86.762 72.1896 88.0953C72.1896 89.4287 71.142 90.4763 69.8087 90.4763H65.0469C63.7136 90.4763 62.666 89.4287 62.666 88.0953C62.666 86.762 63.7136 85.7144 65.0469 85.7144Z" fill="#D0D4D8"/>
<path opacity="0.5" d="M36.4754 85.7144H55.5232C56.8565 85.7144 57.9041 86.762 57.9041 88.0953C57.9041 89.4287 56.8565 90.4763 55.5232 90.4763H36.4754C35.1421 90.4763 34.0945 89.4287 34.0945 88.0953C34.0945 86.762 35.1421 85.7144 36.4754 85.7144Z" fill="#D0D4D8"/>
<path opacity="0.5" d="M79.3326 85.7144H98.3803C99.7136 85.7144 100.761 86.762 100.761 88.0953C100.761 89.4287 99.7136 90.4763 98.3803 90.4763H79.3326C77.9993 90.4763 76.9517 89.4287 76.9517 88.0953C76.9517 86.762 77.9993 85.7144 79.3326 85.7144Z" fill="#D0D4D8"/>
<path d="M41.2373 47.6191H79.3325C80.6658 47.6191 81.7134 48.6667 81.7134 50C81.7134 51.3333 80.6658 52.3809 79.3325 52.3809H41.2373C39.9039 52.3809 38.8563 51.3333 38.8563 50C38.8563 48.6667 39.9039 47.6191 41.2373 47.6191Z" fill="#56B3B4"/>
<path d="M17.4278 47.6191H31.7135C33.0469 47.6191 34.0945 48.6667 34.0945 50C34.0945 51.3333 33.0469 52.3809 31.7135 52.3809H17.4278C16.0945 52.3809 15.0469 51.3333 15.0469 50C15.0469 48.6667 16.0945 47.6191 17.4278 47.6191Z" fill="#F7BA3E"/>
<path d="M3.14206 47.6191H7.90397C9.23731 47.6191 10.2849 48.6667 10.2849 50C10.2849 51.3333 9.23731 52.3809 7.90397 52.3809H3.14206C1.80873 52.3809 0.761108 51.3333 0.761108 50C0.761108 48.6667 1.80873 47.6191 3.14206 47.6191Z" fill="#EA5E5E"/>
<path d="M45.9992 19.0476H65.0468C66.3801 19.0476 67.4278 20.0952 67.4278 21.4286C67.4278 22.7619 66.3801 23.8095 65.0468 23.8095H45.9992C44.6659 23.8095 43.6183 22.7619 43.6183 21.4286C43.6183 20.0952 44.6659 19.0476 45.9992 19.0476Z" fill="#BF85BF"/>
<path d="M3.14206 19.0476H36.4754C37.8087 19.0476 38.8563 20.0952 38.8563 21.4286C38.8563 22.7619 37.8087 23.8095 36.4754 23.8095H3.14206C1.80873 23.8095 0.761108 22.7619 0.761108 21.4286C0.761108 20.0952 1.80873 19.0476 3.14206 19.0476Z" fill="#56B3B4"/>
<path d="M17.4278 66.6665H60.2851C61.6184 66.6665 62.666 67.7141 62.666 69.0475C62.666 70.3808 61.6184 71.4284 60.2851 71.4284H17.4278C16.0945 71.4284 15.0469 70.3808 15.0469 69.0475C15.0469 67.7141 16.0945 66.6665 17.4278 66.6665Z" fill="#F7BA3E"/>
<path d="M3.14206 66.6665H7.90397C9.23731 66.6665 10.2849 67.7141 10.2849 69.0475C10.2849 70.3808 9.23731 71.4284 7.90397 71.4284H3.14206C1.80873 71.4284 0.761108 70.3808 0.761108 69.0475C0.761108 67.7141 1.80873 66.6665 3.14206 66.6665Z" fill="#BF85BF"/>
<path d="M60.285 28.5715H84.0944C85.4278 28.5715 86.4754 29.6191 86.4754 30.9524C86.4754 32.2857 85.4278 33.3333 84.0944 33.3333H60.285C58.9517 33.3333 57.9041 32.2857 57.9041 30.9524C57.9041 29.6191 58.9517 28.5715 60.285 28.5715Z" fill="#EA5E5E"/>
<path d="M60.285 38.0952H84.0944C85.4278 38.0952 86.4754 39.1429 86.4754 40.4762C86.4754 41.8096 85.4278 42.8572 84.0944 42.8572H60.285C58.9517 42.8572 57.9041 41.8096 57.9041 40.4762C57.9041 39.1429 58.9517 38.0952 60.285 38.0952Z" fill="#F7BA3E"/>
<path d="M3.14206 0H60.2849C61.6183 0 62.6659 1.04762 62.6659 2.38095C62.6659 3.71429 61.6183 4.7619 60.2849 4.7619H3.14206C1.80873 4.7619 0.761108 3.71429 0.761108 2.38095C0.761108 1.04762 1.80873 0 3.14206 0Z" fill="#56B3B4"/>
<path opacity="0.5" d="M69.8087 0H98.3801C99.7135 0 100.761 1.04762 100.761 2.38095C100.761 3.71429 99.7135 4.7619 98.3801 4.7619H69.8087C68.4754 4.7619 67.4277 3.71429 67.4277 2.38095C67.4277 1.04762 68.4754 0 69.8087 0Z" fill="#D0D4D8"/>
<path opacity="0.5" d="M69.8087 66.6665H79.3325C80.6658 66.6665 81.7134 67.7141 81.7134 69.0475C81.7134 70.3808 80.6658 71.4284 79.3325 71.4284H69.8087C68.4753 71.4284 67.4277 70.3808 67.4277 69.0475C67.4277 67.7141 68.4753 66.6665 69.8087 66.6665Z" fill="#D0D4D8"/>
<path opacity="0.5" d="M88.8563 66.6665H98.3802C99.7135 66.6665 100.761 67.7141 100.761 69.0475C100.761 70.3808 99.7135 71.4284 98.3802 71.4284H88.8563C87.523 71.4284 86.4753 70.3808 86.4753 69.0475C86.4753 67.7141 87.523 66.6665 88.8563 66.6665Z" fill="#D0D4D8"/>
<path opacity="0.5" d="M84.0945 57.1431H98.3802C99.7136 57.1431 100.761 58.1906 100.761 59.5239C100.761 60.8572 99.7136 61.9047 98.3802 61.9047H84.0945C82.7611 61.9047 81.7135 60.8572 81.7135 59.5239C81.7135 58.1906 82.7611 57.1431 84.0945 57.1431Z" fill="#D0D4D8"/>
<path opacity="0.5" d="M84.0945 9.52393H98.3802C99.7136 9.52393 100.761 10.5716 100.761 11.9049C100.761 13.2382 99.7136 14.2859 98.3802 14.2859H84.0945C82.7611 14.2859 81.7135 13.2382 81.7135 11.9049C81.7135 10.5716 82.7611 9.52393 84.0945 9.52393Z" fill="#D0D4D8"/>
<path opacity="0.5" d="M88.8563 47.6191H98.3802C99.7135 47.6191 100.761 48.6667 100.761 50C100.761 51.3333 99.7135 52.3809 98.3802 52.3809H88.8563C87.523 52.3809 86.4753 51.3333 86.4753 50C86.4753 48.6667 87.523 47.6191 88.8563 47.6191Z" fill="#D0D4D8"/>
<path opacity="0.5" d="M88.8563 19.0476H98.3802C99.7135 19.0476 100.761 20.0952 100.761 21.4286C100.761 22.7619 99.7135 23.8095 98.3802 23.8095H88.8563C87.523 23.8095 86.4753 22.7619 86.4753 21.4286C86.4753 20.0952 87.523 19.0476 88.8563 19.0476Z" fill="#D0D4D8"/>
<path opacity="0.5" d="M93.6183 28.5715H98.3802C99.7135 28.5715 100.761 29.6191 100.761 30.9524C100.761 32.2857 99.7135 33.3333 98.3802 33.3333H93.6183C92.2849 33.3333 91.2373 32.2857 91.2373 30.9524C91.2373 29.6191 92.2849 28.5715 93.6183 28.5715Z" fill="#D0D4D8"/>
<path opacity="0.5" d="M93.6183 38.0952H98.3802C99.7135 38.0952 100.761 39.1429 100.761 40.4762C100.761 41.8096 99.7135 42.8572 98.3802 42.8572H93.6183C92.2849 42.8572 91.2373 41.8096 91.2373 40.4762C91.2373 39.1429 92.2849 38.0952 93.6183 38.0952Z" fill="#D0D4D8"/>
<path opacity="0.5" d="M55.5232 76.1904H98.3802C99.7135 76.1904 100.761 77.2381 100.761 78.5714C100.761 79.9047 99.7135 80.9524 98.3802 80.9524H55.5232C54.1898 80.9524 53.1422 79.9047 53.1422 78.5714C53.1422 77.2381 54.1898 76.1904 55.5232 76.1904Z" fill="#D0D4D8"/>
<path opacity="0.5" d="M36.4754 76.1904H45.9992C47.3326 76.1904 48.3802 77.2381 48.3802 78.5714C48.3802 79.9047 47.3326 80.9524 45.9992 80.9524H36.4754C35.1421 80.9524 34.0945 79.9047 34.0945 78.5714C34.0945 77.2381 35.1421 76.1904 36.4754 76.1904Z" fill="#D0D4D8"/>
<path opacity="0.5" d="M74.5707 95.2383H98.3803C99.7136 95.2383 100.761 96.2859 100.761 97.6192C100.761 98.9526 99.7136 100 98.3803 100H74.5707C73.2373 100 72.1897 98.9526 72.1897 97.6192C72.1897 96.2859 73.2373 95.2383 74.5707 95.2383Z" fill="#D0D4D8"/>
<path opacity="0.5" d="M36.4754 95.2383H65.0468C66.3801 95.2383 67.4278 96.2859 67.4278 97.6192C67.4278 98.9526 66.3801 100 65.0468 100H36.4754C35.1421 100 34.0945 98.9526 34.0945 97.6192C34.0945 96.2859 35.1421 95.2383 36.4754 95.2383Z" fill="#D0D4D8"/>
<path opacity="0.5" d="M36.4755 28.5715H50.7613C52.0946 28.5715 53.1422 29.6191 53.1422 30.9524C53.1422 32.2857 52.0946 33.3333 50.7613 33.3333H36.4755C35.1421 33.3333 34.0945 32.2857 34.0945 30.9524C34.0945 29.6191 35.1421 28.5715 36.4755 28.5715Z" fill="#D0D4D8"/>
<path opacity="0.5" d="M36.4755 38.0952H50.7613C52.0946 38.0952 53.1422 39.1429 53.1422 40.4762C53.1422 41.8096 52.0946 42.8572 50.7613 42.8572H36.4755C35.1421 42.8572 34.0945 41.8096 34.0945 40.4762C34.0945 39.1429 35.1421 38.0952 36.4755 38.0952Z" fill="#D0D4D8"/>
</svg>
