<svg width="101" height="62" viewBox="0 0 101 62" fill="none" xmlns="http://www.w3.org/2000/svg">
<path d="M84.6109 19.4401C84.4548 16.006 84.9231 12.962 83.3622 10.3864C79.6158 3.98636 70.2499 0.23999 51.5181 0.23999C32.7863 0.23999 22.9521 3.98636 19.2057 10.4645C17.7228 13.1181 17.8789 16.084 17.6447 19.5182C17.4886 22.2499 16.2399 25.1377 16.7862 28.2597C17.4106 32.3183 17.6447 36.3768 18.2691 40.1232C18.7374 43.1671 22.9521 45.7427 23.3423 48.6306C24.435 56.5916 32.7082 60.2599 51.44 60.2599V60.8843H50.9717H51.5181V60.2599C70.2499 60.2599 78.2109 56.5916 79.2255 48.6306C79.6158 45.6647 83.5182 43.1671 83.9865 40.1232C84.6109 36.3768 84.8451 32.3183 85.4695 28.2597C86.0158 25.1377 84.767 22.1718 84.6109 19.4401Z" fill="#EFCCA3"/>
<path d="M51.2059 22.2499C54.5621 22.3279 56.9035 24.4353 59.0889 26.3865C61.6645 28.6499 66.0353 30.2109 67.8304 32.1622C69.6256 34.1134 71.9671 36.0646 72.8256 39.1085C73.6841 42.1525 73.9183 46.0549 73.9183 47.0696C73.9183 48.0842 74.4646 47.8501 76.0256 47.0696C79.6939 45.2744 83.7525 40.4354 83.7525 40.4354C83.2842 43.4793 79.3037 46.211 78.9134 49.0989C77.9769 57.0599 70.25 60.8843 51.1279 60.8843H51.0498H51.5181" fill="#CCAC8D"/>
<path d="M63.5377 16.162C64.2402 18.5816 66.7377 26.7767 61.8987 24.045C61.8987 24.045 63.928 25.2158 65.1768 29.6646C66.5036 34.1134 69.7036 34.6597 69.7036 34.6597C69.7036 34.6597 74.9329 35.6744 78.8354 32.3182C82.1134 29.5085 82.6598 24.5133 81.2549 20.6889C79.85 16.9425 77.3524 15.7718 73.6841 14.9913C70.0158 14.1328 62.6792 13.4303 63.5377 16.162Z" fill="#CCAC8D"/>
<path d="M72.8256 31.928C76.6189 31.928 79.6939 28.853 79.6939 25.0597C79.6939 21.2664 76.6189 18.1913 72.8256 18.1913C69.0323 18.1913 65.9573 21.2664 65.9573 25.0597C65.9573 28.853 69.0323 31.928 72.8256 31.928Z" fill="black"/>
<path d="M71.0305 23.8108C72.022 23.8108 72.8257 23.0071 72.8257 22.0157C72.8257 21.0243 72.022 20.2206 71.0305 20.2206C70.0391 20.2206 69.2353 21.0243 69.2353 22.0157C69.2353 23.0071 70.0391 23.8108 71.0305 23.8108Z" fill="white"/>
<path d="M62.367 24.7475C62.367 24.7475 68.5329 28.9621 71.889 33.0987C75.2451 37.2353 75.1671 38.0158 75.1671 38.0158L72.7475 39.1085C72.7475 39.1085 69.3134 32.6304 65.0987 30.2109C60.806 27.7914 60.3377 25.7621 60.3377 25.7621L62.367 24.7475Z" fill="#EFCCA3"/>
<path d="M51.4401 22.2499C48.084 22.3279 45.5864 24.4353 43.323 26.3865C40.7473 28.6499 36.2205 30.2109 34.4253 32.1622C32.6302 34.1134 30.2107 36.0646 29.3521 39.1085C28.4936 42.1525 28.1814 46.0549 28.1814 47.0696C28.1814 48.0842 28.3375 48.1623 26.0741 47.0696C22.4058 45.3525 18.3472 40.4354 18.3472 40.4354C18.8155 43.4793 22.796 46.211 23.1862 49.0989C24.2789 57.0599 32.0058 60.8843 51.1279 60.8843H51.5181" fill="#CCAC8D"/>
<path d="M69.5476 35.4402C65.8012 30.8353 59.7914 26.5426 51.4401 26.5426H51.3621C43.0108 26.5426 37.001 30.8353 33.2546 35.4402C29.3521 40.2012 29.6643 42.0744 29.6643 46.6012C29.6643 62.9916 35.44 58.3086 39.2644 60.3379C43.1669 62.2891 47.2254 61.6647 51.3621 61.6647H51.4401C55.6548 61.6647 59.6353 62.2111 63.5378 60.2598C67.3622 58.3086 73.1378 63.1477 73.1378 46.7573C73.2159 42.2305 73.45 40.2012 69.5476 35.4402Z" fill="#56332B"/>
<path d="M51.0499 30.6012C51.0499 30.6012 50.5035 38.1721 49.4108 39.655L51.4401 39.1867L51.0499 30.6012Z" fill="#442823"/>
<path d="M51.5962 30.6012C51.5962 30.6012 52.1425 38.1721 53.2352 39.655L51.2059 39.1867L51.5962 30.6012Z" fill="#442823"/>
<path d="M45.04 28.806C44.2596 27.0109 47.0693 24.1231 51.5182 24.045C55.967 24.045 58.7768 26.9328 57.9963 28.806C57.2158 30.6792 54.406 31.2255 51.5182 31.3036C48.7084 31.2255 45.8205 30.6792 45.04 28.806Z" fill="#56332B"/>
<path d="M51.5181 30.6012C51.5181 30.289 54.1717 30.2109 55.5766 29.2743C55.5766 29.2743 52.6888 30.2109 52.0644 29.8207C51.44 29.5085 51.2839 28.5719 51.2839 28.5719C51.2839 28.5719 51.0498 29.5085 50.5815 29.8207C50.0352 30.1329 46.7571 29.2743 46.7571 29.2743C46.7571 29.2743 51.1278 30.367 51.1278 30.6012C51.1278 30.8353 51.0498 31.6158 51.0498 32.1622C51.0498 34.1134 51.0498 38.9524 51.362 39.3427C51.8303 40.0451 51.6742 34.1134 51.6742 32.1622C51.5961 31.5378 51.5961 30.9134 51.5181 30.6012Z" fill="black"/>
<path d="M51.6742 41.0597C53.001 41.0597 55.3425 41.9963 57.4498 43.4792C55.4206 41.2158 53.001 39.6549 51.6742 39.6549C50.2693 39.6549 47.3035 41.3719 45.1961 43.8694C47.3815 42.1524 50.1913 41.0597 51.6742 41.0597Z" fill="#7F4A41"/>
<path d="M51.1279 54.8746C48.162 54.8746 45.2742 53.938 42.6205 53.2355C42.0742 53.0794 41.5278 53.4697 40.9815 53.3136C36.0644 51.7526 32.0839 49.0989 29.6643 45.7427V46.5232C29.6643 62.9137 35.44 58.3087 39.2644 60.26C43.1669 62.2112 47.2254 61.5868 51.362 61.5868H51.4401C55.6548 61.5868 59.6353 62.1332 63.5377 60.1819C67.3621 58.2307 73.1378 62.9917 73.1378 46.6013C73.1378 45.9769 73.1378 45.3525 73.2158 44.8061C70.9524 48.4745 66.8158 51.3623 61.6645 53.0794C61.1963 53.2355 60.1036 52.8453 59.6353 52.9233C56.8255 53.8599 54.3279 54.8746 51.1279 54.8746Z" fill="#442823"/>
<path d="M43.7132 46.0549C43.7132 46.0549 41.762 51.9087 43.0888 54.4843L41.2937 53.7038C41.2937 53.7038 42.6205 47.772 43.7132 46.0549ZM59.167 46.0549C59.167 46.0549 61.1182 51.9087 59.7914 54.4843L61.5865 53.7038C61.5865 53.7038 60.1816 47.772 59.167 46.0549Z" fill="#442823"/>
<path d="M38.718 16.162C38.0156 18.5816 35.518 26.7767 40.3571 24.045C40.3571 24.045 38.3278 25.2158 37.079 29.6646C35.8302 34.1134 32.5522 34.6597 32.5522 34.6597C32.5522 34.6597 27.3229 35.6744 23.4204 32.3182C20.1423 29.5085 19.596 24.5133 21.0009 20.6889C22.4057 16.8645 24.9033 15.7718 28.5716 14.9913C32.24 14.1328 39.4985 13.4303 38.718 16.162Z" fill="#CCAC8D"/>
<path d="M51.4401 39.6549C53.5474 39.6549 60.1035 44.1817 60.1816 49.7232V49.411C60.1816 43.6354 54.8742 39.0305 51.4401 39.0305C48.0059 39.0305 42.6986 43.7134 42.6986 49.411V49.7232C42.7766 44.1817 49.3327 39.6549 51.4401 39.6549Z" fill="black"/>
<path d="M53.144 28.8485C53.4779 28.7624 53.6176 28.185 53.4561 27.5589C53.2946 26.9329 52.893 26.4951 52.5591 26.5813C52.2252 26.6674 52.0854 27.2448 52.2469 27.8709C52.4084 28.497 52.8101 28.9347 53.144 28.8485Z" fill="#331712"/>
<path d="M49.1322 28.8368C49.4616 28.939 49.8839 28.5212 50.0754 27.9037C50.267 27.2861 50.1553 26.7027 49.826 26.6005C49.4966 26.4984 49.0743 26.9161 48.8827 27.5337C48.6911 28.1512 48.8028 28.7347 49.1322 28.8368Z" fill="#331712"/>
<path d="M29.8204 31.928C33.6137 31.928 36.6888 28.853 36.6888 25.0597C36.6888 21.2664 33.6137 18.1913 29.8204 18.1913C26.0272 18.1913 22.9521 21.2664 22.9521 25.0597C22.9521 28.853 26.0272 31.928 29.8204 31.928Z" fill="black"/>
<path d="M31.6156 23.8108C32.607 23.8108 33.4107 23.0071 33.4107 22.0157C33.4107 21.0243 32.607 20.2206 31.6156 20.2206C30.6241 20.2206 29.8204 21.0243 29.8204 22.0157C29.8204 23.0071 30.6241 23.8108 31.6156 23.8108Z" fill="white"/>
<path d="M53.4694 25.1376C53.4694 25.0596 51.6742 25.9181 51.2059 25.9961C50.7376 25.9181 48.9425 25.0596 48.9425 25.1376H53.4694Z" fill="#7F4A41"/>
<path d="M39.8107 24.7475C39.8107 24.7475 33.6448 28.9621 30.2887 33.0987C26.9326 37.2353 27.0107 38.0158 27.0107 38.0158L29.4302 39.1085C29.4302 39.1085 32.8643 32.6304 37.079 30.2109C41.2937 27.7914 41.84 25.7621 41.84 25.7621L39.8107 24.7475Z" fill="#EFCCA3"/>
<path d="M26.3082 12.2596C26.3082 12.2596 24.2009 18.0352 19.5179 20.4548C19.5179 20.4548 26.8546 19.5962 26.3082 12.2596ZM75.5573 12.2596C75.5573 12.2596 77.6647 18.0352 82.3476 20.4548C82.3476 20.4548 75.011 19.5962 75.5573 12.2596ZM62.2109 23.0304C62.2109 23.0304 57.606 18.1913 51.4401 18.0352H51.5962C45.3522 18.1913 40.8254 23.0304 40.8254 23.0304C46.2108 19.284 50.8157 19.3621 51.5962 19.3621C51.5181 19.3621 56.8255 19.284 62.2109 23.0304ZM56.8255 12.884C56.8255 12.884 54.484 9.60591 51.362 9.52786H51.5181C49.1767 9.60591 46.1327 12.884 46.1327 12.884C48.7864 10.3084 51.5181 10.3864 51.5181 10.3864C51.5181 10.3864 54.0938 10.3084 56.8255 12.884ZM29.8204 36.8451C29.8204 36.8451 26.1521 38.6402 23.4984 37.5476H23.4204C21.0789 36.2207 19.9082 32.2402 19.9082 32.2402C19.9082 32.2402 22.2497 39.2646 29.8204 36.8451ZM72.5915 36.8451C72.5915 36.8451 76.2598 38.6402 78.9134 37.5476C82.0354 36.2207 82.5037 32.2402 82.5037 32.2402C82.5037 32.2402 80.1622 39.2646 72.5915 36.8451Z" fill="#CCAC8D"/>
<path d="M34.0351 11.8693C36.0644 11.4791 39.4205 11.401 42.0742 12.2596C45.4303 13.4303 42.6986 17.723 43.401 17.9572C44.1035 18.1913 45.04 14.9913 51.284 15.3035C57.606 15.6157 58.3084 18.4255 59.167 17.9572C60.0255 17.4889 58.3084 10.1523 67.7524 11.8693C67.7524 11.8693 57.8401 9.21566 58.3084 16.3962C58.3084 16.3962 52.6108 12.0254 44.6498 15.9279C44.7279 15.9279 46.7571 9.21566 34.0351 11.8693ZM68.6109 11.8693C68.767 11.8693 68.8451 11.9474 68.9231 11.9474C69.0012 11.9474 68.8451 11.8693 68.6109 11.8693ZM31.3034 2.26927C31.3034 2.26927 22.874 12.884 21.6253 16.9425C20.3765 21.0792 19.4399 38.0159 18.3472 40.4354L14.4447 23.7328L21.6253 6.32784L31.3034 2.26927ZM70.9524 2.26927C70.9524 2.26927 79.3817 12.884 80.6305 16.9425C81.8793 21.0792 82.8159 38.0159 83.9086 40.4354L87.8111 23.7328L80.6305 6.32784L70.9524 2.26927Z" fill="#CCAC8D"/>
<path d="M70.5622 2.26925C70.5622 2.26925 79.6159 9.84003 82.2696 18.5816C84.9233 27.3231 83.8306 37.9378 85.8599 39.2646C88.7478 41.1378 92.0258 29.9768 93.1185 28.806C94.8356 26.9328 100.533 22.1718 100.924 21.3133C101.314 20.4547 89.3722 7.42051 84.1428 4.84488C77.8208 1.87901 70.0158 1.64486 70.5622 2.26925Z" fill="#56332B"/>
<path d="M78.289 6.95223C78.289 6.95223 88.9818 20.6108 88.8257 37.6255L93.1184 28.884C93.0404 28.884 89.294 17.723 78.289 6.95223Z" fill="#442823"/>
<path d="M31.3034 2.26927C31.3034 2.26927 22.2497 9.84003 19.596 18.5816C16.9423 27.3231 18.035 37.9378 16.0057 39.2646C13.1179 41.1378 9.83982 29.9768 8.74713 28.806C7.03005 26.9328 1.33245 22.1718 0.9422 21.3133C0.551954 20.4547 12.4935 7.42051 17.7228 4.84488C24.0448 1.87901 31.8497 1.64488 31.3034 2.26927Z" fill="#56332B"/>
<path d="M23.5765 6.95223C23.5765 6.95223 12.8837 20.6108 13.0398 37.6255L8.82517 28.884C8.82517 28.884 12.5715 17.723 23.5765 6.95223Z" fill="#442823"/>
<path d="M17.8008 37.9377C17.8008 37.9377 18.5813 42.1524 19.8301 43.4792C21.0789 44.8061 20.2204 42.4646 20.2204 42.4646C20.2204 42.4646 18.8935 41.7621 19.1277 36.3767C19.3618 30.9913 17.8008 37.9377 17.8008 37.9377ZM84.3769 37.9377C84.3769 37.9377 83.5964 42.1524 82.3476 43.4792C81.0988 44.8061 81.9574 42.4646 81.9574 42.4646C81.9574 42.4646 83.2842 41.7621 83.0501 36.3767C82.8159 30.9913 84.3769 37.9377 84.3769 37.9377Z" fill="#CCAC8D"/>
<path d="M43.3229 35.3624C43.6678 35.3624 43.9473 35.0828 43.9473 34.738C43.9473 34.3931 43.6678 34.1135 43.3229 34.1135C42.9781 34.1135 42.6986 34.3931 42.6986 34.738C42.6986 35.0828 42.9781 35.3624 43.3229 35.3624Z" fill="#442823"/>
<path d="M39.7327 39.1086C40.0776 39.1086 40.3571 38.8291 40.3571 38.4842C40.3571 38.1394 40.0776 37.8599 39.7327 37.8599C39.3879 37.8599 39.1083 38.1394 39.1083 38.4842C39.1083 38.8291 39.3879 39.1086 39.7327 39.1086Z" fill="#442823"/>
<path d="M38.562 35.3624C38.9068 35.3624 39.1864 35.0828 39.1864 34.738C39.1864 34.3931 38.9068 34.1135 38.562 34.1135C38.2171 34.1135 37.9376 34.3931 37.9376 34.738C37.9376 35.0828 38.2171 35.3624 38.562 35.3624Z" fill="#442823"/>
<path d="M58.5426 35.3624C58.8875 35.3624 59.1671 35.0828 59.1671 34.738C59.1671 34.3931 58.8875 34.1135 58.5426 34.1135C58.1978 34.1135 57.9182 34.3931 57.9182 34.738C57.9182 35.0828 58.1978 35.3624 58.5426 35.3624Z" fill="#442823"/>
<path d="M62.1328 39.1086C62.4777 39.1086 62.7572 38.8291 62.7572 38.4842C62.7572 38.1394 62.4777 37.8599 62.1328 37.8599C61.788 37.8599 61.5084 38.1394 61.5084 38.4842C61.5084 38.8291 61.788 39.1086 62.1328 39.1086Z" fill="#442823"/>
<path d="M63.3036 35.3624C63.6484 35.3624 63.9279 35.0828 63.9279 34.738C63.9279 34.3931 63.6484 34.1135 63.3036 34.1135C62.9587 34.1135 62.6792 34.3931 62.6792 34.738C62.6792 35.0828 62.9587 35.3624 63.3036 35.3624Z" fill="#442823"/>
</svg>
