<svg width="101" height="100" viewBox="0 0 101 100" fill="none" xmlns="http://www.w3.org/2000/svg">
<path d="M50.4681 0.151123C25.0818 0.151123 26.6669 11.1601 26.6669 11.1601L26.6951 22.5658H50.9208V25.99H17.073C17.073 25.99 0.828369 24.1477 0.828369 49.7622C0.828369 75.3775 15.0071 74.4691 15.0071 74.4691H23.4689V62.5826C23.4689 62.5826 23.0128 48.4039 37.4214 48.4039H61.4489C61.4489 48.4039 74.9483 48.622 74.9483 35.3572V13.4246C74.9483 13.4246 76.9985 0.151123 50.4681 0.151123ZM37.1101 7.82119C37.6825 7.82068 38.2495 7.93305 38.7785 8.15189C39.3075 8.37072 39.7881 8.69172 40.1929 9.09652C40.5977 9.50132 40.9187 9.98196 41.1376 10.511C41.3564 11.0399 41.4688 11.6069 41.4683 12.1794C41.4688 12.7518 41.3564 13.3188 41.1376 13.8478C40.9187 14.3768 40.5977 14.8574 40.1929 15.2622C39.7881 15.667 39.3075 15.988 38.7785 16.2068C38.2495 16.4257 37.6825 16.538 37.1101 16.5375C36.5376 16.538 35.9707 16.4257 35.4417 16.2068C34.9127 15.988 34.432 15.667 34.0272 15.2622C33.6224 14.8574 33.3014 14.3768 33.0826 13.8478C32.8638 13.3188 32.7514 12.7518 32.7519 12.1794C32.7514 11.6069 32.8638 11.0399 33.0826 10.511C33.3014 9.98196 33.6224 9.50132 34.0272 9.09652C34.432 8.69172 34.9127 8.37072 35.4417 8.15189C35.9707 7.93305 36.5376 7.82068 37.1101 7.82119Z" fill="url(#paint0_linear_602_63)"/>
<path d="M51.189 99.6312C76.5753 99.6312 74.9902 88.6222 74.9902 88.6222L74.962 77.2169H50.736V73.7926H84.5837C84.5837 73.7926 100.828 75.6349 100.828 50.0196C100.828 24.4046 86.6496 25.313 86.6496 25.313H78.1878V37.1992C78.1878 37.1992 78.644 51.3779 64.2354 51.3779H40.2078C40.2078 51.3779 26.7085 51.1598 26.7085 64.4251V86.3581C26.7085 86.3581 24.659 99.6312 51.189 99.6312ZM64.5471 91.9619C63.9746 91.9624 63.4076 91.85 62.8786 91.6312C62.3497 91.4123 61.869 91.0913 61.4642 90.6865C61.0594 90.2817 60.7384 89.8011 60.5196 89.2721C60.3007 88.7431 60.1884 88.1762 60.1889 87.6037C60.1883 87.0312 60.3007 86.4642 60.5195 85.9351C60.7383 85.4061 61.0593 84.9254 61.4641 84.5206C61.8689 84.1157 62.3495 83.7947 62.8785 83.5758C63.4076 83.357 63.9746 83.2446 64.5471 83.2451C65.1195 83.2446 65.6865 83.357 66.2155 83.5758C66.7445 83.7946 67.2251 84.1156 67.6299 84.5204C68.0347 84.9252 68.3557 85.4059 68.5745 85.9349C68.7934 86.4639 68.9057 87.0308 68.9052 87.6033C68.9057 88.1758 68.7934 88.7427 68.5745 89.2717C68.3557 89.8007 68.0347 90.2813 67.6299 90.6861C67.2251 91.0909 66.7445 91.4119 66.2155 91.6308C65.6865 91.8496 65.1195 91.9624 64.5471 91.9619Z" fill="url(#paint1_linear_602_63)"/>
<defs>
<linearGradient id="paint0_linear_602_63" x1="13.7874" y1="12.1275" x2="80.1225" y2="78.2913" gradientUnits="userSpaceOnUse">
<stop stop-color="#387EB8"/>
<stop offset="1" stop-color="#366994"/>
</linearGradient>
<linearGradient id="paint1_linear_602_63" x1="40.8564" y1="40.6038" x2="94.0749" y2="90.9129" gradientUnits="userSpaceOnUse">
<stop stop-color="#FFE052"/>
<stop offset="1" stop-color="#FFC331"/>
</linearGradient>
</defs>
</svg>
