<svg width="81" height="81" viewBox="0 0 81 81" fill="none" xmlns="http://www.w3.org/2000/svg">
    <path d="M40.75 0.75C62.84 0.75 80.75 18.66 80.75 40.75C80.75 62.84 62.84 80.75 40.75 80.75C18.66 80.75 0.75 62.84 0.75 40.75C0.75 18.66 18.66 0.75 40.75 0.75ZM32.8 54.0767C33.3833 56.2267 33.32 58.2367 32.72 60.05L32.5033 60.65C32.4233 60.8533 32.33 61.05 32.2433 61.2367C31.7767 62.2033 31.1567 63.1033 30.3933 63.9367C28.0667 66.4667 24.82 67.4267 23.4267 66.62C21.9267 65.7467 22.6733 62.17 25.3733 59.32C28.2767 56.26 32.44 54.29 32.44 54.29V54.28L32.8 54.0767ZM65.8367 17.8733C64.03 10.7633 52.2467 8.42667 41.0967 12.39C34.4667 14.7467 27.2833 18.45 22.12 23.28C15.9767 29.0167 15 34.0167 15.4033 36.1067C16.8267 43.4767 26.9267 48.2967 31.08 51.8733V51.8933C29.8567 52.4933 20.8933 56.99 18.7933 61.6433C16.5433 66.5433 19.1433 70.0467 20.8433 70.4933C26.0933 71.9467 31.4933 69.2933 34.3933 64.9967C37.1933 60.7933 36.9467 55.3933 35.74 52.7433C37.3933 52.2933 39.34 52.0933 41.84 52.3967C48.8433 53.1967 50.2433 57.5967 49.94 59.3967C49.64 61.1933 48.1967 62.2433 47.6933 62.5433C47.1933 62.8467 47.0433 62.9433 47.09 63.1467C47.14 63.4467 47.3933 63.4467 47.79 63.3967C48.34 63.2967 51.4433 61.8967 51.5933 58.4933C51.7433 54.1933 47.64 49.3967 40.3433 49.4933C37.3433 49.5467 35.44 49.7967 34.0933 50.3467C33.9933 50.1967 33.89 50.0967 33.7433 49.9967C29.2433 45.1467 20.8933 41.7467 21.2433 35.2967C21.3433 32.9467 22.1933 26.75 37.2433 19.25C49.5933 13.0967 59.4467 14.8 61.1467 18.55C63.59 23.8967 55.8933 33.85 43.0433 35.2967C38.1433 35.8467 35.5933 33.95 34.94 33.2467C34.2433 32.4967 34.1433 32.4467 33.8933 32.6C33.4933 32.8 33.7433 33.45 33.8933 33.85C34.2933 34.85 35.8433 36.6 38.5467 37.5C40.8933 38.25 46.6467 38.6967 53.5467 36C61.2933 33.0033 67.3433 24.65 65.5933 17.65L65.8367 17.8733Z"
          fill="#CC6699"/>
</svg>
