<svg width="90" height="101" viewBox="0 0 90 101" fill="none" xmlns="http://www.w3.org/2000/svg">
<path d="M45 0.297119L0.80835 25.2971V75.2971L45 100.297L89.1917 75.2971V25.2971L45 0.297119Z" fill="white"/>
<path d="M8.70011 73.5721L43.5418 93.2804V77.9304L21.8334 65.9887L8.70011 73.5721ZM6.31678 71.4137V30.1971L19.0668 37.5554V64.0471L6.31678 71.4137ZM81.4418 73.5721L46.6001 93.2804V77.9304L68.3084 65.9887L81.4418 73.5721ZM83.8251 71.4137V30.1971L71.0751 37.5554V64.0471L83.8251 71.4137ZM82.3334 27.5304L46.6001 7.31372V22.1554L69.4918 34.7471L69.6668 34.8471L82.3334 27.5304ZM7.80843 27.5304L43.5418 7.31372V22.1554L20.6501 34.7471L20.4751 34.8471L7.80843 27.5304Z" fill="#8ED6FB"/>
<path d="M46.6 74.4388L68.0166 62.6638V39.3304L46.6 51.6971V74.4388ZM43.5416 74.4388L22.125 62.6638V39.3304L43.5416 51.6971V74.4388ZM66.5666 36.6304L45.0666 24.8054L23.5666 36.6304L45.0666 49.0471L66.5666 36.6304Z" fill="#1C78C0"/>
</svg>
