<svg width="100" height="100" viewBox="0 0 100 100" fill="none" xmlns="http://www.w3.org/2000/svg">
<path d="M50 0C77.6062 0 100 22.3938 100 50C100 77.6062 77.6062 100 50 100C22.3938 100 0 77.6062 0 50C0 22.3938 22.3938 0 50 0Z" fill="#2C8EBB"/>
<path d="M84.0154 65.1544C83.668 62.4131 81.3514 60.5212 78.3784 60.5598C73.9382 60.6178 70.2124 62.9151 67.7413 64.4401C66.7761 65.0386 65.9459 65.4826 65.2317 65.8108C65.3861 63.5714 65.251 60.6371 64.0927 57.4131C62.6834 53.5521 60.7915 51.1776 59.4402 49.8069C61.0039 47.529 63.1467 44.2085 64.1506 39.0734C65.0193 34.6911 64.749 27.8764 62.7606 24.0541C62.3552 23.2819 61.6795 22.722 60.8301 22.4903C60.4826 22.3938 59.8263 22.2008 58.5328 22.5676C56.583 18.5328 55.9073 18.1081 55.3861 17.7606C54.305 17.0656 53.0309 16.9112 51.834 17.3552C50.2317 17.9344 48.861 19.4788 47.5676 22.2201C47.3745 22.6255 47.2008 23.0116 47.0463 23.3977C44.5946 23.5714 40.7336 24.4595 37.471 27.9923C37.0656 28.4363 36.2741 28.7645 35.444 29.0734H35.4633C33.7645 29.6718 32.9923 31.0618 32.0463 33.5714C30.7336 37.0849 32.0849 40.5405 33.417 42.7799C31.6023 44.4015 29.1892 46.9884 27.9151 50.0193C26.332 53.7645 26.1583 57.4324 26.2162 59.4208C24.8649 60.8494 22.7799 63.5328 22.5483 66.5444C22.2394 70.7529 23.7645 73.61 24.4402 74.6525C24.6332 74.9614 24.8456 75.2123 25.0772 75.4633C25 75.9845 24.9807 76.5444 25.0965 77.1235C25.3475 78.4749 26.1969 79.5753 27.4903 80.2703C30.0386 81.6216 33.5907 82.2008 36.332 80.8301C37.3166 81.8726 39.112 82.8764 42.3745 82.8764H42.5676C43.3977 82.8764 53.9382 82.3166 57.0077 81.5637C58.3784 81.2355 59.3243 80.6564 59.9421 80.1351C61.9112 79.5174 67.3552 77.6641 72.4903 74.3436C76.1197 71.9884 77.3745 71.4865 80.0772 70.8301C82.7027 70.193 84.3436 67.7992 84.0154 65.1544ZM79.4208 67.9923C76.332 68.7259 74.7683 69.4015 70.9459 71.8919C64.9807 75.7529 58.4556 77.5483 58.4556 77.5483C58.4556 77.5483 57.9151 78.3591 56.3514 78.7259C53.6486 79.3822 43.4749 79.9421 42.5483 79.9614C40.0579 79.9807 38.5328 79.3243 38.1081 78.3012C36.8147 75.2124 39.9614 73.861 39.9614 73.861C39.9614 73.861 39.2664 73.4363 38.861 73.0502C38.4942 72.6834 38.1081 71.9498 37.9923 72.2201C37.5097 73.3977 37.2587 76.2741 35.9653 77.5676C34.1892 79.3629 30.8301 78.7645 28.8417 77.722C26.6602 76.5637 28.9961 73.8417 28.9961 73.8417C28.9961 73.8417 27.8185 74.5367 26.8726 73.1081C26.0232 71.7954 25.2317 69.556 25.444 66.7954C25.6757 63.6486 29.1892 60.5984 29.1892 60.5984C29.1892 60.5984 28.5714 55.9459 30.5985 51.1776C32.4324 46.834 37.3745 43.3398 37.3745 43.3398C37.3745 43.3398 33.2239 38.7452 34.7683 34.6139C35.7722 31.9112 36.1776 31.9305 36.5058 31.8147C37.6641 31.3707 38.7838 30.888 39.6139 29.9807C43.7645 25.5019 49.0541 26.3514 49.0541 26.3514C49.0541 26.3514 51.5637 18.7259 53.8803 20.2124C54.5946 20.6757 57.1622 26.39 57.1622 26.39C57.1622 26.39 59.9035 24.7876 60.2124 25.3861C61.8726 28.61 62.0656 34.7683 61.3321 38.5135C60.0965 44.6911 57.0077 48.0116 55.7722 50.0965C55.4826 50.5791 59.0927 52.1042 61.3707 58.417C63.4749 64.1892 61.6023 69.0347 61.9305 69.5753C61.9884 69.6718 62.0077 69.7104 62.0077 69.7104C62.0077 69.7104 64.4209 69.9035 69.2664 66.9112C71.8533 65.3089 74.9228 63.5135 78.417 63.4749C81.7954 63.417 81.9691 67.3745 79.4208 67.9923Z" fill="white"/>
</svg>
